<svg id="svg" xmlns="http://www.w3.org/2000/svg" xmlns:xlink="http://www.w3.org/1999/xlink" width="400" height="273.5042735042735" viewBox="0, 0, 400,273.5042735042735"><g id="svgg"><path id="path0" d="M246.785 3.557 C 246.785 3.730,244.784 3.830,241.329 3.830 C 237.987 3.830,235.808 3.936,235.705 4.104 C 235.606 4.263,234.065 4.378,232.011 4.378 C 229.956 4.378,228.416 4.492,228.317 4.651 C 228.223 4.804,226.947 4.925,225.428 4.925 C 223.933 4.925,222.709 5.039,222.709 5.179 C 222.709 5.319,221.631 5.497,220.315 5.574 C 218.998 5.652,216.936 5.850,215.732 6.014 C 214.528 6.179,212.774 6.381,211.833 6.463 C 210.893 6.546,210.123 6.726,210.123 6.863 C 210.123 7.001,209.499 7.114,208.737 7.114 C 207.975 7.114,207.134 7.230,206.868 7.372 C 206.602 7.514,205.810 7.661,205.108 7.697 C 204.405 7.733,203.830 7.863,203.830 7.985 C 203.830 8.108,203.215 8.208,202.462 8.208 C 201.710 8.208,201.094 8.331,201.094 8.482 C 201.094 8.632,200.612 8.755,200.022 8.755 C 198.755 8.755,198.028 8.990,198.239 9.331 C 198.323 9.466,197.829 9.576,197.143 9.576 C 196.457 9.576,195.896 9.699,195.896 9.850 C 195.896 10.000,195.352 10.123,194.688 10.123 C 194.023 10.123,193.438 10.240,193.388 10.382 C 193.338 10.524,192.719 10.670,192.012 10.706 C 191.306 10.742,190.790 10.871,190.866 10.994 C 190.941 11.117,190.565 11.218,190.030 11.218 C 189.494 11.218,189.056 11.341,189.056 11.491 C 189.056 11.642,188.502 11.765,187.825 11.765 C 187.148 11.765,186.594 11.888,186.594 12.038 C 186.594 12.189,186.170 12.312,185.652 12.312 C 185.134 12.312,184.635 12.435,184.542 12.585 C 184.449 12.736,184.011 12.859,183.568 12.859 C 183.125 12.859,182.763 12.982,182.763 13.133 C 182.763 13.283,182.340 13.406,181.822 13.406 C 181.304 13.406,180.804 13.529,180.711 13.680 C 180.618 13.830,180.119 13.953,179.601 13.953 C 179.083 13.953,178.659 14.077,178.659 14.227 C 178.659 14.378,178.290 14.501,177.839 14.501 C 177.387 14.501,177.018 14.624,177.018 14.774 C 177.018 14.925,176.717 15.048,176.350 15.048 C 175.983 15.048,175.606 15.171,175.513 15.321 C 175.420 15.472,175.052 15.595,174.696 15.595 C 174.339 15.595,173.863 15.780,173.637 16.005 C 173.411 16.231,172.841 16.416,172.370 16.416 C 171.869 16.416,171.584 16.529,171.683 16.689 C 171.785 16.854,171.419 16.963,170.764 16.963 C 170.166 16.963,169.635 17.085,169.585 17.234 C 169.535 17.383,169.164 17.533,168.761 17.566 C 168.358 17.599,168.088 17.723,168.162 17.842 C 168.235 17.960,167.987 18.057,167.611 18.057 C 167.235 18.057,166.851 18.181,166.758 18.331 C 166.665 18.482,166.227 18.605,165.784 18.605 C 165.342 18.605,164.979 18.728,164.979 18.878 C 164.979 19.029,164.741 19.152,164.448 19.152 C 164.156 19.152,163.841 19.275,163.748 19.425 C 163.655 19.576,163.279 19.699,162.911 19.699 C 162.544 19.699,162.244 19.822,162.244 19.973 C 162.244 20.123,161.874 20.246,161.423 20.246 C 160.971 20.246,160.602 20.369,160.602 20.520 C 160.602 20.670,160.294 20.793,159.918 20.793 C 159.542 20.793,159.234 20.917,159.234 21.067 C 159.234 21.218,158.933 21.341,158.566 21.341 C 158.199 21.341,157.822 21.464,157.729 21.614 C 157.636 21.765,157.321 21.888,157.029 21.888 C 156.737 21.888,156.498 22.011,156.498 22.161 C 156.498 22.312,156.261 22.435,155.970 22.435 C 155.680 22.435,155.258 22.620,155.032 22.845 C 154.807 23.071,154.360 23.256,154.039 23.256 C 153.718 23.256,153.532 23.379,153.625 23.529 C 153.724 23.689,153.446 23.803,152.957 23.803 C 152.497 23.803,152.120 23.926,152.120 24.077 C 152.120 24.227,151.805 24.350,151.420 24.350 C 151.023 24.350,150.793 24.469,150.889 24.624 C 150.985 24.779,150.755 24.897,150.358 24.897 C 149.973 24.897,149.658 25.021,149.658 25.171 C 149.658 25.321,149.412 25.445,149.111 25.445 C 148.810 25.445,148.564 25.568,148.564 25.718 C 148.564 25.869,148.256 25.992,147.880 25.992 C 147.503 25.992,147.196 26.115,147.196 26.265 C 147.196 26.416,146.949 26.539,146.648 26.539 C 146.347 26.539,146.101 26.662,146.101 26.813 C 146.101 26.963,145.843 27.086,145.528 27.086 C 145.213 27.086,144.628 27.316,144.228 27.596 C 143.829 27.877,143.010 28.276,142.408 28.484 C 141.806 28.692,141.239 28.963,141.149 29.086 C 141.059 29.210,140.772 29.343,140.512 29.381 C 140.251 29.419,139.956 29.565,139.855 29.705 C 139.578 30.088,138.502 30.643,138.034 30.643 C 137.806 30.643,137.619 30.735,137.618 30.848 C 137.615 31.078,136.303 31.737,135.847 31.737 C 135.685 31.737,135.374 31.984,135.157 32.285 C 134.940 32.585,134.544 32.832,134.276 32.832 C 134.008 32.832,133.789 32.955,133.789 33.105 C 133.789 33.256,133.550 33.379,133.258 33.379 C 132.966 33.379,132.651 33.502,132.558 33.653 C 132.465 33.803,132.150 33.926,131.858 33.926 C 131.566 33.926,131.327 34.049,131.327 34.200 C 131.327 34.350,131.165 34.473,130.968 34.473 C 130.771 34.473,130.345 34.720,130.022 35.021 C 129.699 35.321,129.245 35.568,129.013 35.568 C 128.781 35.568,128.591 35.691,128.591 35.841 C 128.591 35.992,128.345 36.115,128.044 36.115 C 127.743 36.115,127.497 36.247,127.497 36.408 C 127.497 36.891,126.754 37.483,126.148 37.483 C 125.836 37.483,125.581 37.606,125.581 37.756 C 125.581 37.907,125.335 38.030,125.034 38.030 C 124.733 38.030,124.487 38.153,124.487 38.304 C 124.487 38.454,124.233 38.577,123.924 38.577 C 123.614 38.577,123.436 38.700,123.529 38.851 C 123.622 39.001,123.507 39.124,123.272 39.124 C 123.037 39.124,122.845 39.248,122.845 39.398 C 122.845 39.549,122.626 39.672,122.359 39.672 C 122.091 39.672,121.694 39.918,121.477 40.219 C 121.261 40.520,120.864 40.766,120.596 40.766 C 120.328 40.766,120.108 40.858,120.107 40.971 C 120.106 41.084,119.336 41.665,118.397 42.263 C 117.458 42.860,116.490 43.568,116.247 43.836 C 116.004 44.104,115.653 44.323,115.468 44.323 C 115.282 44.323,114.786 44.692,114.364 45.144 C 113.942 45.595,113.400 45.964,113.160 45.964 C 112.919 45.964,112.722 46.088,112.722 46.238 C 112.722 46.389,112.538 46.512,112.312 46.512 C 112.086 46.512,111.902 46.608,111.902 46.726 C 111.902 46.844,111.529 47.161,111.073 47.430 C 110.618 47.699,109.949 48.215,109.587 48.577 C 109.225 48.939,108.770 49.269,108.575 49.310 C 108.174 49.394,107.524 49.944,107.524 50.198 C 107.524 50.546,106.164 51.710,105.758 51.710 C 105.525 51.710,105.335 51.833,105.335 51.984 C 105.335 52.134,105.202 52.257,105.040 52.257 C 104.878 52.257,104.272 52.750,103.694 53.352 C 103.115 53.953,102.533 54.446,102.400 54.446 C 102.025 54.446,100.137 56.259,100.137 56.619 C 100.137 56.796,100.014 56.865,99.863 56.772 C 99.713 56.679,99.590 56.794,99.590 57.029 C 99.590 57.264,99.465 57.456,99.312 57.456 C 98.941 57.456,93.844 62.567,93.844 62.940 C 93.844 63.101,93.721 63.157,93.570 63.064 C 93.420 62.971,93.297 63.030,93.297 63.195 C 93.297 63.507,93.160 63.671,90.694 66.316 C 89.868 67.201,89.193 68.042,89.193 68.184 C 89.193 68.326,88.700 68.916,88.098 69.494 C 87.497 70.072,87.004 70.678,87.004 70.840 C 87.004 71.003,86.881 71.135,86.731 71.135 C 86.580 71.135,86.457 71.329,86.457 71.565 C 86.457 71.992,85.837 72.777,85.499 72.777 C 85.183 72.777,84.564 73.528,84.737 73.702 C 84.830 73.795,84.754 73.871,84.568 73.871 C 84.146 73.871,83.447 74.549,83.447 74.959 C 83.447 75.127,83.170 75.551,82.832 75.901 C 81.804 76.965,81.259 77.693,81.259 78.000 C 81.259 78.161,80.766 78.765,80.164 79.343 C 79.562 79.922,79.070 80.589,79.070 80.827 C 79.070 81.064,78.959 81.259,78.824 81.259 C 78.428 81.259,76.607 83.192,76.607 83.611 C 76.607 83.822,76.484 83.995,76.334 83.995 C 76.183 83.995,76.060 84.119,76.060 84.271 C 76.060 84.422,75.691 84.933,75.239 85.406 C 74.788 85.878,74.419 86.381,74.419 86.525 C 74.419 86.668,74.049 87.130,73.598 87.551 C 73.146 87.973,72.777 88.522,72.777 88.772 C 72.777 89.021,72.654 89.149,72.503 89.056 C 72.353 88.963,72.230 89.011,72.230 89.164 C 72.230 89.316,71.799 89.859,71.272 90.370 C 70.746 90.882,70.315 91.441,70.315 91.614 C 70.315 91.787,69.822 92.436,69.220 93.056 C 68.618 93.676,68.126 94.293,68.126 94.427 C 68.126 94.560,67.756 95.056,67.305 95.529 C 66.854 96.001,66.484 96.491,66.484 96.617 C 66.484 96.894,65.798 97.757,64.774 98.769 C 64.360 99.178,64.022 99.592,64.022 99.690 C 64.022 99.788,63.653 100.255,63.201 100.727 C 62.750 101.199,62.380 101.691,62.380 101.818 C 62.380 101.946,61.888 102.574,61.286 103.213 C 60.684 103.852,60.192 104.539,60.192 104.740 C 60.192 104.940,59.699 105.578,59.097 106.156 C 58.495 106.734,58.003 107.402,58.003 107.639 C 58.003 107.877,57.874 108.071,57.717 108.071 C 57.347 108.071,56.088 109.328,56.088 109.698 C 56.088 109.854,55.841 110.135,55.540 110.323 C 55.239 110.511,54.993 110.794,54.993 110.952 C 54.993 111.110,54.501 111.784,53.899 112.449 C 53.297 113.114,52.804 113.760,52.804 113.885 C 52.804 114.010,52.220 114.701,51.505 115.421 C 50.790 116.141,49.528 117.631,48.700 118.732 C 47.873 119.832,46.672 121.266,46.033 121.919 C 45.393 122.571,44.870 123.226,44.870 123.375 C 44.870 123.523,44.070 124.441,43.092 125.414 C 42.114 126.388,41.313 127.324,41.313 127.495 C 41.313 127.666,40.698 128.405,39.945 129.138 C 39.193 129.871,38.577 130.609,38.577 130.778 C 38.577 130.947,38.454 131.010,38.304 130.917 C 38.153 130.824,38.030 130.993,38.030 131.292 C 38.030 131.597,37.789 131.914,37.483 132.011 C 37.182 132.106,36.936 132.291,36.936 132.422 C 36.936 132.552,36.324 133.313,35.577 134.113 C 33.721 136.099,33.379 136.500,33.379 136.684 C 33.379 136.771,32.886 137.315,32.285 137.893 C 31.683 138.472,31.190 139.025,31.190 139.123 C 31.190 139.408,30.435 140.082,30.115 140.082 C 29.954 140.082,29.822 140.190,29.822 140.321 C 29.822 140.607,28.837 141.767,26.881 143.786 C 26.091 144.601,25.445 145.345,25.445 145.438 C 25.445 145.532,25.075 145.953,24.624 146.375 C 24.172 146.797,23.803 147.338,23.803 147.579 C 23.803 147.820,23.675 148.016,23.518 148.016 C 23.245 148.016,18.605 152.569,18.605 152.837 C 18.605 152.908,18.295 153.276,17.915 153.655 C 17.536 154.034,17.309 154.479,17.411 154.643 C 17.521 154.821,17.468 154.863,17.279 154.746 C 17.092 154.630,16.963 154.724,16.963 154.977 C 16.963 155.212,16.838 155.404,16.684 155.404 C 16.311 155.404,12.859 158.870,12.859 159.245 C 12.859 159.407,12.736 159.464,12.585 159.371 C 12.435 159.278,12.312 159.334,12.312 159.497 C 12.312 159.777,11.757 160.390,7.729 164.565 C 6.789 165.540,6.019 166.413,6.019 166.506 C 6.019 166.599,5.650 167.020,5.198 167.442 C 4.216 168.359,4.057 169.631,4.925 169.631 C 5.226 169.631,5.472 169.736,5.472 169.865 C 5.472 170.094,9.778 172.373,10.203 172.369 C 10.322 172.368,10.684 172.613,11.007 172.914 C 11.330 173.215,11.756 173.461,11.953 173.461 C 12.150 173.461,12.312 173.584,12.312 173.735 C 12.312 173.885,12.558 174.008,12.859 174.008 C 13.160 174.008,13.406 174.120,13.406 174.257 C 13.406 174.502,16.029 175.923,16.481 175.923 C 16.608 175.923,16.977 176.170,17.300 176.471 C 17.623 176.772,18.049 177.018,18.246 177.018 C 18.443 177.018,18.605 177.141,18.605 177.291 C 18.605 177.442,19.073 177.565,19.644 177.565 C 20.216 177.565,20.801 177.677,20.944 177.813 C 21.185 178.044,21.720 178.128,25.650 178.554 C 26.440 178.640,27.086 178.822,27.086 178.958 C 27.086 179.095,27.832 179.207,28.744 179.207 C 29.656 179.207,30.338 179.309,30.261 179.434 C 30.184 179.559,30.823 179.689,31.681 179.723 C 32.540 179.757,33.283 179.901,33.333 180.043 C 33.383 180.185,34.023 180.301,34.754 180.301 C 35.485 180.301,36.159 180.424,36.252 180.575 C 36.345 180.725,37.002 180.848,37.712 180.848 C 38.422 180.848,39.247 181.019,39.545 181.228 C 39.843 181.436,40.701 181.675,41.452 181.757 C 42.203 181.839,43.495 182.050,44.323 182.226 C 46.275 182.640,47.989 182.643,49.521 182.233 C 50.198 182.053,51.548 181.803,52.521 181.679 C 53.494 181.555,54.335 181.318,54.391 181.151 C 54.455 180.957,55.460 180.848,57.189 180.848 C 58.691 180.848,59.960 180.727,60.055 180.575 C 60.159 180.406,62.520 180.301,66.227 180.301 C 70.046 180.301,72.230 180.400,72.230 180.575 C 72.230 180.740,73.376 180.848,75.122 180.848 C 77.328 180.848,78.112 180.946,78.425 181.259 C 78.694 181.528,79.374 181.669,80.403 181.669 C 81.265 181.669,82.087 181.780,82.230 181.916 C 82.373 182.052,83.075 182.237,83.789 182.326 C 87.059 182.737,87.551 182.834,87.551 183.064 C 87.551 183.200,88.037 183.311,88.630 183.311 C 89.223 183.311,89.784 183.434,89.877 183.584 C 89.970 183.735,90.531 183.858,91.124 183.858 C 91.717 183.858,92.202 183.981,92.202 184.131 C 92.202 184.282,92.572 184.405,93.023 184.405 C 93.475 184.405,93.844 184.528,93.844 184.679 C 93.844 184.829,94.268 184.952,94.785 184.952 C 95.303 184.952,95.803 185.075,95.896 185.226 C 95.989 185.376,96.373 185.499,96.749 185.499 C 97.135 185.499,97.360 185.618,97.264 185.773 C 97.163 185.936,97.489 186.047,98.069 186.047 C 98.604 186.047,99.042 186.170,99.042 186.320 C 99.042 186.471,99.412 186.594,99.863 186.594 C 100.315 186.594,100.684 186.717,100.684 186.867 C 100.684 187.018,100.930 187.141,101.231 187.141 C 101.532 187.141,101.778 187.264,101.778 187.415 C 101.778 187.565,102.148 187.688,102.599 187.688 C 103.051 187.688,103.420 187.803,103.420 187.943 C 103.420 188.084,103.697 188.285,104.036 188.391 C 104.374 188.496,104.713 188.658,104.788 188.751 C 105.051 189.074,106.152 189.603,106.563 189.603 C 106.790 189.603,106.977 189.700,106.977 189.817 C 106.977 189.935,107.562 190.202,108.276 190.410 C 108.991 190.619,109.775 191.015,110.018 191.291 C 110.262 191.567,110.723 191.792,111.044 191.792 C 111.365 191.792,111.628 191.915,111.628 192.066 C 111.628 192.216,111.874 192.339,112.175 192.339 C 112.476 192.339,112.722 192.462,112.722 192.613 C 112.722 192.763,112.969 192.886,113.269 192.886 C 113.570 192.886,113.817 193.010,113.817 193.160 C 113.817 193.311,114.036 193.434,114.303 193.434 C 114.571 193.434,114.968 193.680,115.185 193.981 C 115.402 194.282,115.745 194.528,115.949 194.528 C 116.152 194.528,116.490 194.682,116.700 194.870 C 117.578 195.658,117.910 195.896,118.131 195.896 C 118.260 195.896,118.603 196.111,118.895 196.375 C 119.187 196.638,119.795 197.037,120.246 197.262 C 120.698 197.487,121.266 197.887,121.510 198.151 C 121.753 198.416,122.093 198.632,122.264 198.632 C 122.436 198.632,122.963 199.001,123.436 199.453 C 123.908 199.904,124.434 200.274,124.604 200.274 C 124.774 200.274,125.091 200.520,125.308 200.821 C 125.525 201.122,125.803 201.368,125.927 201.368 C 126.195 201.368,126.596 201.690,128.145 203.146 C 128.785 203.748,129.459 204.273,129.643 204.312 C 129.826 204.351,130.644 205.051,131.460 205.866 C 132.275 206.682,133.375 207.554,133.904 207.805 C 134.433 208.056,134.839 208.343,134.806 208.443 C 134.723 208.696,140.561 214.501,140.900 214.501 C 141.052 214.501,141.176 214.747,141.176 215.048 C 141.176 215.349,141.300 215.595,141.450 215.595 C 141.601 215.595,141.724 215.787,141.724 216.022 C 141.724 216.256,141.847 216.372,141.997 216.279 C 142.148 216.186,142.271 216.253,142.271 216.427 C 142.271 216.601,142.640 217.089,143.092 217.510 C 143.543 217.932,143.912 218.422,143.912 218.599 C 143.912 218.776,144.405 219.394,145.007 219.973 C 145.609 220.551,146.101 221.146,146.101 221.294 C 146.101 221.443,146.655 222.134,147.332 222.831 C 148.010 223.528,148.564 224.216,148.564 224.360 C 148.564 224.505,149.056 225.131,149.658 225.751 C 150.260 226.371,150.752 226.999,150.752 227.146 C 150.752 227.293,151.122 227.759,151.573 228.181 C 152.025 228.602,152.394 229.040,152.394 229.153 C 152.394 229.470,154.143 231.719,154.397 231.729 C 154.758 231.742,155.404 232.486,155.404 232.889 C 155.404 233.092,155.650 233.436,155.951 233.653 C 156.252 233.869,156.498 234.239,156.498 234.473 C 156.498 234.708,156.744 235.077,157.045 235.294 C 157.346 235.511,157.593 235.877,157.593 236.107 C 157.593 236.337,157.962 236.956,158.413 237.483 C 158.864 238.010,159.233 238.594,159.233 238.782 C 159.234 238.971,159.357 239.124,159.508 239.124 C 159.658 239.124,159.781 239.371,159.781 239.672 C 159.781 239.973,159.889 240.219,160.022 240.219 C 160.154 240.219,160.415 240.588,160.602 241.040 C 160.789 241.491,161.059 241.860,161.202 241.860 C 161.345 241.860,161.646 242.045,161.872 242.271 C 162.098 242.497,162.207 242.681,162.115 242.681 C 161.899 242.681,163.384 245.251,163.670 245.372 C 163.788 245.422,163.885 245.672,163.885 245.927 C 163.885 246.182,164.131 246.568,164.432 246.785 C 164.733 247.002,164.979 247.399,164.979 247.666 C 164.979 247.934,165.103 248.153,165.253 248.153 C 165.404 248.153,165.527 248.315,165.527 248.512 C 165.527 248.709,165.773 249.135,166.074 249.458 C 166.375 249.781,166.621 250.115,166.621 250.200 C 166.621 250.474,168.104 252.655,168.601 253.110 C 168.866 253.353,169.083 253.726,169.083 253.939 C 169.083 254.151,169.330 254.503,169.631 254.720 C 169.932 254.936,170.178 255.333,170.178 255.601 C 170.178 255.868,170.287 256.088,170.419 256.088 C 170.552 256.088,170.986 256.752,171.383 257.564 C 171.781 258.376,172.287 259.191,172.510 259.376 C 172.732 259.560,172.914 259.897,172.914 260.125 C 172.914 260.352,173.130 260.737,173.394 260.980 C 173.659 261.224,174.049 261.761,174.262 262.175 C 174.474 262.589,174.812 262.927,175.012 262.927 C 175.212 262.927,175.376 263.174,175.376 263.475 C 175.376 263.776,175.499 264.022,175.650 264.022 C 175.800 264.022,175.923 264.264,175.923 264.560 C 175.923 266.313,178.458 267.532,179.642 266.347 C 180.018 265.971,180.439 265.663,180.578 265.663 C 180.716 265.663,181.261 265.233,181.788 264.706 C 182.314 264.179,182.850 263.748,182.979 263.748 C 183.107 263.748,183.791 263.194,184.498 262.517 C 185.204 261.840,185.913 261.286,186.073 261.286 C 186.232 261.286,186.836 260.793,187.415 260.192 C 187.993 259.590,188.605 259.097,188.776 259.097 C 188.946 259.097,189.479 258.721,189.960 258.261 C 190.441 257.801,191.142 257.257,191.518 257.053 C 191.895 256.848,192.384 256.424,192.605 256.111 C 192.826 255.797,193.174 255.540,193.379 255.540 C 193.583 255.540,194.202 255.079,194.755 254.514 C 195.307 253.950,196.074 253.327,196.458 253.129 C 196.843 252.931,197.544 252.408,198.017 251.966 C 198.489 251.524,198.978 251.163,199.104 251.163 C 199.229 251.163,199.542 250.917,199.800 250.616 C 200.415 249.898,200.545 249.919,201.460 250.889 C 201.887 251.341,202.327 251.710,202.439 251.710 C 202.552 251.710,202.818 252.044,203.032 252.453 C 203.245 252.862,204.248 254.038,205.260 255.067 L 207.101 256.937 209.180 256.882 C 210.497 256.848,211.395 256.692,211.629 256.457 C 211.883 256.204,212.739 256.088,214.344 256.088 C 215.725 256.088,216.689 255.975,216.689 255.814 C 216.689 255.651,217.738 255.540,219.289 255.540 C 220.839 255.540,221.888 255.430,221.888 255.267 C 221.888 255.107,222.800 254.993,224.077 254.993 C 225.353 254.993,226.265 254.879,226.265 254.720 C 226.265 254.559,227.223 254.446,228.591 254.446 C 229.959 254.446,230.917 254.333,230.917 254.172 C 230.917 254.022,231.418 253.899,232.030 253.899 C 233.113 253.899,233.926 253.433,233.926 252.812 C 233.926 252.645,234.172 252.244,234.473 251.921 C 234.774 251.598,235.021 251.110,235.021 250.838 C 235.021 250.565,235.144 250.342,235.294 250.342 C 235.445 250.342,235.568 250.096,235.568 249.795 C 235.568 249.494,235.691 249.248,235.841 249.248 C 235.992 249.248,236.115 249.001,236.115 248.700 C 236.115 248.399,236.238 248.153,236.389 248.153 C 236.539 248.153,236.662 247.907,236.662 247.606 C 236.662 247.305,236.785 247.059,236.936 247.059 C 237.086 247.059,237.209 246.813,237.209 246.512 C 237.209 246.211,237.332 245.964,237.483 245.964 C 237.633 245.964,237.756 245.718,237.756 245.417 C 237.756 245.113,237.939 244.870,238.167 244.870 C 238.393 244.870,238.577 244.685,238.577 244.460 C 238.577 244.234,238.670 244.048,238.782 244.047 C 239.028 244.045,239.672 242.720,239.672 242.216 C 239.672 242.021,239.774 241.860,239.899 241.860 C 240.024 241.860,240.300 241.522,240.513 241.108 C 240.725 240.694,241.115 240.157,241.380 239.913 C 241.644 239.670,241.860 239.270,241.860 239.024 C 241.860 238.778,241.963 238.577,242.088 238.577 C 242.213 238.577,242.489 238.239,242.702 237.825 C 242.914 237.411,243.304 236.873,243.569 236.630 C 243.833 236.387,244.049 236.048,244.049 235.878 C 244.049 235.707,244.172 235.568,244.323 235.568 C 244.473 235.568,244.596 235.321,244.596 235.021 C 244.596 234.720,244.723 234.473,244.878 234.473 C 245.192 234.473,249.248 230.379,249.248 230.061 C 249.248 229.950,249.494 229.781,249.795 229.685 C 250.096 229.590,250.342 229.391,250.342 229.244 C 250.342 228.803,251.651 227.633,252.144 227.633 C 252.397 227.633,252.803 227.416,253.046 227.150 C 253.289 226.884,254.073 226.372,254.788 226.012 C 255.503 225.653,256.088 225.255,256.088 225.128 C 256.088 225.001,256.457 224.897,256.908 224.897 C 257.360 224.897,257.729 224.774,257.729 224.624 C 257.729 224.465,258.623 224.350,259.863 224.350 C 261.037 224.350,262.114 224.236,262.257 224.097 C 262.400 223.958,264.056 223.774,265.937 223.688 C 267.818 223.603,270.588 223.440,272.093 223.326 C 274.661 223.132,276.060 223.312,276.060 223.836 C 276.060 223.957,276.553 224.543,277.155 225.139 C 277.756 225.735,278.249 226.306,278.249 226.408 C 278.249 226.510,278.834 227.180,279.549 227.898 C 280.263 228.616,281.587 230.014,282.490 231.007 C 283.393 231.999,284.236 232.816,284.364 232.821 C 284.491 232.827,284.941 233.201,285.363 233.653 C 285.784 234.104,286.295 234.476,286.498 234.479 C 286.701 234.482,287.235 234.913,287.685 235.437 C 288.135 235.960,288.637 236.389,288.801 236.389 C 288.964 236.389,289.394 236.704,289.757 237.090 C 290.119 237.476,290.818 237.983,291.309 238.216 C 291.800 238.449,292.202 238.749,292.202 238.882 C 292.202 239.015,292.449 239.124,292.750 239.124 C 293.051 239.124,293.297 239.248,293.297 239.398 C 293.297 239.549,293.543 239.672,293.844 239.672 C 294.145 239.672,294.391 239.795,294.391 239.945 C 294.391 240.096,294.637 240.219,294.938 240.219 C 295.239 240.219,295.486 240.342,295.486 240.492 C 295.486 240.643,295.732 240.766,296.033 240.766 C 296.334 240.766,296.580 240.889,296.580 241.040 C 296.580 241.190,296.819 241.313,297.111 241.313 C 297.403 241.313,297.718 241.436,297.811 241.587 C 297.904 241.737,298.342 241.860,298.785 241.860 C 299.228 241.860,299.590 241.984,299.590 242.134 C 299.590 242.285,299.946 242.408,300.381 242.408 C 300.816 242.408,301.238 242.577,301.317 242.784 C 301.458 243.150,302.209 243.376,304.309 243.683 C 304.873 243.766,305.335 243.923,305.335 244.033 C 305.335 244.143,306.095 244.260,307.025 244.294 C 307.954 244.328,308.931 244.471,309.196 244.613 C 309.807 244.940,320.930 244.954,320.930 244.627 C 320.930 244.494,321.761 244.314,322.777 244.229 C 323.793 244.143,325.301 243.938,326.129 243.774 C 326.956 243.609,328.126 243.404,328.728 243.319 C 329.330 243.234,329.921 242.994,330.041 242.786 C 330.169 242.565,330.709 242.408,331.341 242.408 C 331.935 242.408,332.421 242.285,332.421 242.134 C 332.421 241.984,332.791 241.860,333.242 241.860 C 333.694 241.860,334.063 241.737,334.063 241.587 C 334.063 241.436,334.425 241.313,334.868 241.313 C 335.310 241.313,335.748 241.190,335.841 241.040 C 335.934 240.889,336.249 240.766,336.541 240.766 C 336.834 240.766,337.073 240.643,337.073 240.492 C 337.073 240.342,337.373 240.219,337.740 240.219 C 338.108 240.219,338.484 240.096,338.577 239.945 C 338.670 239.795,338.985 239.672,339.277 239.672 C 339.570 239.672,339.808 239.549,339.808 239.398 C 339.808 239.248,340.055 239.124,340.356 239.124 C 340.657 239.124,340.903 239.001,340.903 238.851 C 340.903 238.700,341.126 238.577,341.398 238.577 C 341.671 238.577,342.158 238.331,342.481 238.030 C 342.804 237.729,343.259 237.483,343.491 237.483 C 343.723 237.483,343.912 237.360,343.912 237.209 C 343.912 237.059,344.088 236.936,344.303 236.936 C 344.518 236.936,344.936 236.628,345.232 236.252 C 345.527 235.876,345.918 235.568,346.099 235.568 C 346.281 235.568,346.774 235.198,347.196 234.747 C 347.617 234.295,348.159 233.926,348.400 233.926 C 348.640 233.926,348.837 233.803,348.837 233.653 C 348.837 233.502,348.966 233.379,349.124 233.379 C 349.282 233.379,350.236 232.527,351.244 231.485 C 353.985 228.653,354.583 227.938,354.583 227.492 C 354.583 227.269,354.748 227.086,354.950 227.086 C 355.152 227.086,355.614 226.501,355.976 225.787 C 356.338 225.072,356.727 224.446,356.840 224.396 C 356.953 224.346,357.045 224.007,357.045 223.643 C 357.045 223.280,357.168 222.982,357.319 222.982 C 357.469 222.982,357.592 222.736,357.592 222.435 C 357.592 222.134,357.715 221.888,357.866 221.888 C 358.016 221.888,358.140 221.580,358.140 221.204 C 358.140 220.828,358.263 220.520,358.413 220.520 C 358.564 220.520,358.687 220.089,358.687 219.562 C 358.687 219.036,358.810 218.605,358.960 218.605 C 359.111 218.605,359.234 218.243,359.234 217.800 C 359.234 217.357,359.357 216.919,359.508 216.826 C 359.658 216.733,359.781 216.049,359.781 215.305 C 359.781 214.562,359.904 213.953,360.055 213.953 C 360.206 213.953,360.328 213.229,360.328 212.328 C 360.328 211.434,360.451 210.627,360.602 210.534 C 360.759 210.437,360.876 209.026,360.876 207.234 C 360.876 205.330,360.983 204.104,361.149 204.104 C 361.321 204.104,361.423 202.371,361.423 199.453 C 361.423 196.572,361.320 194.802,361.152 194.802 C 360.976 194.802,360.924 187.437,361.002 173.529 C 361.141 148.908,361.278 143.912,361.816 143.912 C 362.017 143.912,362.374 143.512,362.610 143.023 C 362.846 142.534,363.352 141.801,363.735 141.394 C 364.119 140.986,364.432 140.490,364.432 140.291 C 364.432 140.092,364.679 139.752,364.979 139.535 C 365.280 139.318,365.527 138.921,365.527 138.654 C 365.527 138.386,365.650 138.167,365.800 138.167 C 365.951 138.167,366.074 137.921,366.074 137.620 C 366.074 137.319,366.197 137.073,366.347 137.073 C 366.498 137.073,366.621 136.883,366.621 136.651 C 366.621 136.419,366.867 135.965,367.168 135.641 C 367.469 135.318,367.715 134.831,367.715 134.559 C 367.715 134.286,367.839 134.063,367.989 134.063 C 368.140 134.063,368.263 133.817,368.263 133.516 C 368.263 133.215,368.386 132.969,368.536 132.969 C 368.687 132.969,368.810 132.722,368.810 132.421 C 368.810 132.117,368.992 131.874,369.220 131.874 C 369.446 131.874,369.631 131.706,369.631 131.502 C 369.631 131.297,370.123 130.172,370.725 129.001 C 371.327 127.831,371.819 126.706,371.819 126.501 C 371.819 126.296,371.943 126.129,372.093 126.129 C 372.244 126.129,372.367 125.882,372.367 125.581 C 372.367 125.280,372.490 125.034,372.640 125.034 C 372.791 125.034,372.914 124.665,372.914 124.213 C 372.914 123.762,373.037 123.393,373.187 123.393 C 373.338 123.393,373.461 123.220,373.461 123.008 C 373.461 122.677,373.838 121.805,374.863 119.771 C 374.995 119.510,375.103 119.048,375.103 118.745 C 375.103 118.442,375.226 118.194,375.376 118.194 C 375.527 118.194,375.650 117.948,375.650 117.647 C 375.650 117.346,375.773 117.100,375.923 117.100 C 376.074 117.100,376.197 116.958,376.197 116.785 C 376.197 116.506,377.186 114.218,377.862 112.931 C 378.000 112.670,378.112 112.208,378.112 111.905 C 378.112 111.602,378.235 111.354,378.386 111.354 C 378.536 111.354,378.659 111.108,378.659 110.807 C 378.659 110.506,378.782 110.260,378.933 110.260 C 379.083 110.260,379.207 110.014,379.207 109.713 C 379.207 109.412,379.330 109.166,379.480 109.166 C 379.631 109.166,379.754 108.985,379.754 108.763 C 379.754 108.542,380.000 107.923,380.301 107.387 C 380.602 106.851,380.848 106.232,380.848 106.011 C 380.848 105.790,380.971 105.609,381.122 105.609 C 381.272 105.609,381.395 105.363,381.395 105.062 C 381.395 104.761,381.518 104.514,381.669 104.514 C 381.819 104.514,381.943 104.145,381.943 103.694 C 381.943 103.242,382.066 102.873,382.216 102.873 C 382.367 102.873,382.490 102.640,382.490 102.355 C 382.490 102.070,382.674 101.766,382.900 101.679 C 383.126 101.593,383.311 101.272,383.311 100.966 C 383.311 100.660,383.434 100.410,383.584 100.410 C 383.735 100.410,383.858 100.041,383.858 99.590 C 383.858 99.138,383.981 98.769,384.131 98.769 C 384.282 98.769,384.405 98.523,384.405 98.222 C 384.405 97.921,384.528 97.674,384.679 97.674 C 384.829 97.674,384.952 97.374,384.952 97.007 C 384.952 96.639,385.075 96.263,385.226 96.170 C 385.376 96.077,385.499 95.762,385.499 95.469 C 385.499 95.177,385.622 94.938,385.773 94.938 C 385.923 94.938,386.047 94.508,386.047 93.981 C 386.047 93.454,386.170 93.023,386.320 93.023 C 386.471 93.023,386.594 92.654,386.594 92.202 C 386.594 91.751,386.717 91.382,386.867 91.382 C 387.018 91.382,387.141 90.889,387.141 90.287 C 387.141 89.685,387.264 89.193,387.415 89.193 C 387.565 89.193,387.688 88.700,387.688 88.098 C 387.688 87.497,387.811 87.004,387.962 87.004 C 388.112 87.004,388.235 86.450,388.235 85.773 C 388.235 85.096,388.358 84.542,388.509 84.542 C 388.684 84.542,388.782 82.125,388.782 77.839 C 388.782 73.552,388.684 71.135,388.509 71.135 C 388.358 71.135,388.235 70.581,388.235 69.904 C 388.235 69.227,388.112 68.673,387.962 68.673 C 387.811 68.673,387.688 68.181,387.688 67.579 C 387.688 66.977,387.565 66.484,387.415 66.484 C 387.264 66.484,387.141 66.115,387.141 65.663 C 387.141 65.212,387.018 64.843,386.867 64.843 C 386.717 64.843,386.594 64.596,386.594 64.295 C 386.594 63.995,386.471 63.748,386.320 63.748 C 386.170 63.748,386.047 63.440,386.047 63.064 C 386.047 62.688,385.923 62.380,385.773 62.380 C 385.622 62.380,385.499 62.134,385.499 61.833 C 385.499 61.532,385.376 61.286,385.226 61.286 C 385.075 61.286,384.952 61.067,384.952 60.799 C 384.952 60.531,384.706 60.135,384.405 59.918 C 384.104 59.701,383.858 59.357,383.858 59.154 C 383.858 58.713,383.195 58.003,382.783 58.003 C 382.622 58.003,382.490 57.770,382.490 57.484 C 382.490 57.199,381.628 56.078,380.575 54.993 C 379.521 53.908,378.659 52.924,378.659 52.807 C 378.659 52.690,378.321 52.374,377.907 52.106 C 377.493 51.838,376.955 51.393,376.712 51.117 C 376.469 50.841,376.130 50.616,375.960 50.616 C 375.789 50.616,375.650 50.487,375.650 50.329 C 375.650 50.021,374.280 48.723,373.940 48.709 C 373.827 48.704,373.228 48.208,372.608 47.606 C 371.987 47.004,371.374 46.512,371.244 46.512 C 371.016 46.512,370.100 45.754,368.596 44.323 C 368.201 43.947,367.841 43.670,367.796 43.707 C 367.564 43.904,367.168 43.732,367.166 43.434 C 367.165 43.246,366.706 42.784,366.145 42.408 C 365.584 42.031,364.767 41.385,364.328 40.971 C 363.889 40.557,363.364 40.219,363.161 40.219 C 362.957 40.219,362.791 40.096,362.791 39.945 C 362.791 39.795,362.599 39.672,362.364 39.672 C 362.130 39.672,362.014 39.549,362.107 39.398 C 362.200 39.248,362.084 39.124,361.849 39.124 C 361.615 39.124,361.423 39.001,361.423 38.851 C 361.423 38.700,361.226 38.577,360.985 38.577 C 360.745 38.577,360.203 38.208,359.781 37.756 C 359.359 37.305,358.818 36.936,358.577 36.936 C 358.336 36.936,358.140 36.744,358.140 36.509 C 358.140 36.275,358.016 36.159,357.866 36.252 C 357.715 36.345,357.592 36.296,357.592 36.144 C 357.592 35.992,357.161 35.663,356.635 35.413 C 356.108 35.163,355.677 34.849,355.677 34.716 C 355.677 34.582,355.516 34.473,355.318 34.473 C 355.121 34.473,354.695 34.227,354.372 33.926 C 354.049 33.625,353.622 33.379,353.423 33.379 C 353.225 33.379,352.884 33.133,352.668 32.832 C 352.451 32.531,352.081 32.285,351.847 32.285 C 351.612 32.285,351.243 32.038,351.026 31.737 C 350.809 31.436,350.469 31.190,350.270 31.190 C 350.071 31.190,349.644 30.944,349.321 30.643 C 348.998 30.342,348.511 30.096,348.238 30.096 C 347.966 30.096,347.743 29.921,347.743 29.708 C 347.743 29.495,347.373 29.157,346.922 28.958 C 346.471 28.758,346.101 28.516,346.101 28.421 C 346.101 28.325,345.732 28.094,345.280 27.907 C 344.829 27.720,344.460 27.459,344.460 27.327 C 344.460 27.194,344.287 27.086,344.075 27.086 C 343.557 27.086,341.450 25.947,341.450 25.667 C 341.450 25.545,341.204 25.445,340.903 25.445 C 340.602 25.445,340.356 25.321,340.356 25.171 C 340.356 25.021,340.109 24.897,339.808 24.897 C 339.508 24.897,339.261 24.774,339.261 24.624 C 339.261 24.473,339.015 24.350,338.714 24.350 C 338.413 24.350,338.167 24.227,338.167 24.077 C 338.167 23.926,337.921 23.803,337.620 23.803 C 337.319 23.803,337.073 23.680,337.073 23.529 C 337.073 23.379,336.839 23.256,336.555 23.256 C 336.270 23.256,335.966 23.071,335.879 22.845 C 335.793 22.620,335.472 22.435,335.166 22.435 C 334.860 22.435,334.610 22.312,334.610 22.161 C 334.610 22.011,334.449 21.888,334.251 21.888 C 334.054 21.888,333.382 21.642,332.760 21.341 C 332.137 21.040,331.436 20.793,331.203 20.793 C 330.970 20.793,330.780 20.670,330.780 20.520 C 330.780 20.369,330.418 20.246,329.975 20.246 C 329.533 20.246,329.094 20.123,329.001 19.973 C 328.908 19.822,328.593 19.699,328.301 19.699 C 328.009 19.699,327.770 19.576,327.770 19.425 C 327.770 19.275,327.278 19.152,326.676 19.152 C 326.074 19.152,325.581 19.042,325.581 18.908 C 325.581 18.634,324.290 18.365,321.956 18.152 C 321.091 18.073,320.383 17.897,320.383 17.760 C 320.383 17.620,318.511 17.510,316.142 17.510 C 313.497 17.510,311.902 17.613,311.902 17.784 C 311.902 17.952,310.579 18.057,308.482 18.057 C 306.384 18.057,305.062 17.952,305.062 17.784 C 305.062 17.633,304.815 17.510,304.514 17.510 C 304.213 17.510,303.967 17.387,303.967 17.237 C 303.967 17.086,303.783 16.963,303.559 16.963 C 303.334 16.963,302.873 16.724,302.533 16.432 C 302.193 16.141,301.624 15.652,301.267 15.346 C 300.911 15.041,300.357 14.708,300.036 14.606 C 299.715 14.505,299.254 14.194,299.010 13.914 C 298.767 13.635,298.423 13.406,298.246 13.406 C 298.070 13.406,297.661 13.160,297.338 12.859 C 297.015 12.558,296.589 12.312,296.392 12.312 C 296.194 12.312,296.033 12.189,296.033 12.038 C 296.033 11.888,295.794 11.765,295.502 11.765 C 295.210 11.765,294.895 11.642,294.802 11.491 C 294.709 11.341,294.386 11.218,294.085 11.218 C 293.784 11.218,293.614 11.094,293.707 10.944 C 293.803 10.789,293.573 10.670,293.176 10.670 C 292.791 10.670,292.476 10.547,292.476 10.397 C 292.476 10.246,292.230 10.123,291.929 10.123 C 291.628 10.123,291.382 10.000,291.382 9.850 C 291.382 9.699,291.012 9.576,290.561 9.576 C 290.109 9.576,289.771 9.447,289.808 9.290 C 289.885 8.970,287.341 7.935,285.978 7.733 C 285.489 7.660,285.089 7.491,285.089 7.357 C 285.089 7.223,284.720 7.114,284.268 7.114 C 283.817 7.114,283.447 6.990,283.447 6.840 C 283.447 6.689,283.024 6.566,282.506 6.566 C 281.988 6.566,281.488 6.443,281.395 6.293 C 281.302 6.142,280.679 6.019,280.011 6.019 C 279.343 6.019,278.796 5.896,278.796 5.746 C 278.796 5.595,278.181 5.472,277.428 5.472 C 276.676 5.472,276.060 5.349,276.060 5.198 C 276.060 5.046,275.325 4.925,274.402 4.925 C 273.491 4.925,272.810 4.819,272.890 4.690 C 272.970 4.560,272.023 4.430,270.786 4.401 C 269.549 4.371,268.419 4.231,268.276 4.089 C 268.133 3.947,266.017 3.830,263.573 3.830 C 260.906 3.830,259.062 3.721,258.960 3.557 C 258.730 3.184,246.785 3.184,246.785 3.557 M263.885 17.511 C 277.451 18.753,284.140 20.829,292.831 26.496 C 300.164 31.276,302.773 32.137,308.618 31.707 C 315.398 31.207,319.988 31.458,323.256 32.506 C 325.776 33.315,331.439 35.931,334.154 37.542 C 335.504 38.342,336.251 38.775,338.235 39.904 C 345.375 43.968,363.754 57.625,368.843 62.648 C 375.137 68.861,376.565 74.748,374.287 85.089 C 374.010 86.343,372.634 90.620,372.394 90.971 C 372.291 91.122,372.041 91.737,371.838 92.339 C 371.635 92.941,371.104 94.234,370.658 95.212 C 370.212 96.190,369.074 98.714,368.130 100.821 C 367.185 102.927,365.955 105.636,365.396 106.840 C 364.837 108.044,363.520 111.060,362.469 113.543 C 359.029 121.669,353.269 132.832,352.515 132.832 C 352.373 132.832,352.178 131.847,352.080 130.643 C 351.983 129.439,351.765 126.854,351.595 124.897 C 351.425 122.941,351.174 119.863,351.038 118.057 C 350.901 116.252,350.703 114.372,350.599 113.879 C 350.408 112.986,349.932 112.382,349.932 113.035 C 349.932 113.817,347.150 122.084,345.573 125.992 C 343.822 130.330,340.444 137.263,338.689 140.123 C 337.950 141.326,337.346 142.377,337.346 142.458 C 337.346 143.211,330.079 152.668,329.501 152.668 C 329.102 152.668,329.163 146.876,329.700 133.516 C 330.083 123.990,330.049 120.657,329.569 120.657 C 329.234 120.657,326.634 121.163,322.435 122.045 C 321.833 122.171,320.725 122.398,319.973 122.549 C 317.106 123.123,317.048 123.161,315.369 125.596 C 309.034 134.779,304.901 144.477,302.862 154.946 L 302.551 156.541 305.722 159.780 C 307.465 161.561,308.892 163.142,308.892 163.293 C 308.892 163.527,309.563 164.768,312.020 169.076 C 312.475 169.875,312.950 170.096,313.110 169.585 C 313.172 169.384,313.497 167.989,313.831 166.484 C 314.744 162.368,314.490 162.267,316.916 167.715 C 317.284 168.543,317.860 169.836,318.195 170.588 C 320.339 175.405,320.191 175.291,321.459 173.098 C 321.996 172.169,322.717 170.855,323.062 170.178 C 324.440 167.471,325.109 167.134,325.387 169.008 C 325.706 171.157,326.657 175.193,326.902 175.438 C 328.133 176.669,332.011 171.929,333.945 166.833 C 334.845 164.460,335.311 164.030,335.563 165.337 C 336.009 167.652,337.327 172.890,337.532 173.163 C 337.578 173.224,338.328 172.609,339.198 171.795 C 340.983 170.125,344.711 166.787,345.995 165.709 C 347.151 164.739,347.239 164.940,347.046 168.112 C 346.432 178.220,344.390 184.614,340.466 188.717 C 338.988 190.263,338.629 190.783,338.962 190.896 C 358.868 197.693,350.123 223.823,326.031 229.530 C 308.292 233.732,298.556 229.810,285.323 213.133 C 278.226 204.188,271.022 199.184,266.057 199.749 C 258.603 200.597,242.360 200.583,235.021 199.721 C 230.694 199.213,228.049 198.862,226.813 198.630 C 226.135 198.504,224.781 198.260,223.803 198.089 C 222.825 197.918,221.594 197.670,221.067 197.538 C 220.540 197.407,219.494 197.160,218.741 196.990 C 214.478 196.030,207.407 193.750,204.166 192.291 C 203.221 191.866,202.375 191.518,202.284 191.518 C 202.030 191.518,196.811 188.847,194.665 187.619 C 183.406 181.174,173.779 171.099,168.153 159.871 C 167.310 158.190,166.621 156.746,166.621 156.664 C 166.621 156.581,166.320 155.863,165.953 155.069 C 165.308 153.676,164.050 150.121,163.602 148.427 C 163.483 147.975,163.203 146.929,162.980 146.101 C 161.565 140.846,161.645 140.419,164.295 139.067 C 170.897 135.702,177.064 129.974,177.853 126.477 C 178.131 125.241,177.732 125.303,175.166 126.890 C 172.277 128.678,167.886 130.784,164.499 132.005 C 161.929 132.933,157.424 134.319,156.088 134.594 C 150.697 135.703,150.679 135.706,144.380 136.523 C 136.266 137.574,123.086 136.373,115.869 133.924 C 109.253 131.679,106.421 127.097,109.755 124.034 C 111.316 122.601,111.910 122.518,122.298 122.283 C 138.484 121.917,149.361 120.233,156.635 116.966 C 157.086 116.763,158.010 116.377,158.687 116.108 C 163.380 114.240,169.053 109.855,171.499 106.204 C 173.842 102.706,174.403 100.213,172.434 102.048 C 171.308 103.097,166.389 106.165,163.034 107.910 C 153.405 112.921,142.021 115.731,131.352 115.732 C 127.301 115.733,122.217 115.175,122.617 114.775 C 122.685 114.706,124.704 114.145,127.102 113.526 C 131.456 112.404,137.055 110.817,139.124 110.118 C 143.312 108.705,151.239 105.515,152.941 104.558 C 153.167 104.431,154.460 103.734,155.814 103.009 C 159.107 101.246,163.308 98.472,165.510 96.607 C 166.497 95.770,167.530 94.899,167.804 94.670 C 170.209 92.667,173.799 87.450,174.930 84.316 C 176.125 81.003,175.946 80.842,173.588 83.105 C 165.372 90.992,153.337 99.083,144.460 102.689 C 143.782 102.964,142.982 103.290,142.681 103.415 C 142.072 103.666,139.942 104.453,137.551 105.311 C 134.288 106.481,127.955 107.944,127.464 107.641 C 127.245 107.505,127.487 106.846,129.216 102.873 C 130.653 99.573,130.655 99.050,129.230 100.226 C 128.220 101.059,125.116 103.146,124.886 103.146 C 124.788 103.146,124.379 103.381,123.976 103.668 C 123.230 104.199,117.795 106.963,115.321 108.069 C 113.624 108.828,111.980 109.558,110.465 110.225 C 95.368 116.871,91.108 120.162,91.108 125.179 C 91.108 129.595,94.160 132.556,103.557 137.257 C 108.340 139.651,115.485 142.188,120.657 143.329 C 121.334 143.478,122.442 143.726,123.119 143.879 C 123.796 144.032,125.150 144.280,126.129 144.429 C 127.107 144.578,128.892 144.861,130.096 145.057 C 133.172 145.558,147.040 145.544,150.404 145.036 C 153.315 144.597,153.762 144.761,153.762 146.269 C 153.762 148.725,156.041 162.723,157.298 167.989 C 159.295 176.351,161.882 183.601,164.418 187.939 C 165.871 190.424,166.349 190.196,166.345 187.020 C 166.342 184.896,166.855 177.282,167.075 176.198 C 167.183 175.662,167.378 176.018,167.978 177.839 C 170.576 185.732,175.444 193.521,181.720 199.825 L 184.679 202.797 184.680 205.981 C 184.684 211.987,181.836 225.368,180.209 226.996 C 180.109 227.096,180.027 227.342,180.027 227.543 C 180.027 228.494,175.317 237.209,174.803 237.209 C 174.595 237.209,172.093 233.526,172.093 233.220 C 172.093 233.052,166.531 224.589,165.634 223.393 C 165.296 222.941,163.636 220.725,161.945 218.468 C 160.255 216.211,158.797 214.302,158.707 214.227 C 158.616 214.152,157.990 213.413,157.315 212.586 C 146.054 198.788,129.271 185.043,115.998 178.749 C 115.626 178.572,114.152 177.873,112.722 177.194 C 106.323 174.156,98.026 171.215,92.202 169.922 C 91.676 169.805,90.698 169.557,90.029 169.371 C 88.705 169.004,87.786 168.835,82.627 168.014 C 72.488 166.401,57.776 166.446,49.521 168.115 C 48.393 168.343,46.695 168.696,45.748 168.900 C 43.424 169.398,43.473 168.830,45.965 166.347 C 46.041 166.272,47.025 165.103,48.154 163.748 C 49.282 162.394,50.328 161.148,50.479 160.980 C 51.236 160.134,53.532 157.278,57.341 152.441 C 61.634 146.990,67.565 138.613,75.487 126.813 C 78.821 121.847,82.284 116.737,83.183 115.458 C 84.082 114.179,85.029 112.825,85.289 112.449 C 85.939 111.505,89.568 106.598,89.740 106.430 C 89.817 106.354,90.216 105.842,90.627 105.290 C 91.037 104.739,91.529 104.124,91.720 103.922 C 91.910 103.721,92.795 102.633,93.687 101.505 C 94.579 100.376,95.810 98.889,96.423 98.200 C 97.036 97.511,98.646 95.665,100.000 94.097 C 115.253 76.440,134.709 61.991,160.192 49.396 C 165.315 46.864,171.528 44.060,176.744 41.928 C 177.120 41.774,178.167 41.337,179.070 40.956 C 182.725 39.415,196.724 34.421,199.590 33.635 C 201.694 33.058,202.457 32.836,204.241 32.285 C 205.294 31.959,206.525 31.590,206.977 31.465 C 210.445 30.507,213.566 29.690,216.963 28.853 C 224.083 27.099,224.286 27.053,228.454 26.283 C 229.131 26.158,230.363 25.914,231.190 25.740 C 232.018 25.566,233.557 25.306,234.610 25.162 C 235.663 25.019,237.326 24.778,238.304 24.626 C 246.744 23.318,260.248 23.197,266.758 24.370 C 270.615 25.066,274.899 26.196,277.018 27.076 C 280.670 28.593,283.550 30.255,283.282 30.689 C 283.192 30.835,282.915 30.872,282.667 30.773 C 278.447 29.077,267.141 29.254,264.387 31.058 C 263.766 31.465,265.513 34.149,269.809 39.392 C 271.015 40.865,270.874 41.139,269.015 40.935 C 253.695 39.252,236.286 41.623,232.527 45.904 C 231.272 47.334,231.523 47.394,238.587 47.347 C 251.214 47.264,262.743 48.584,269.904 50.934 C 272.504 51.787,276.334 53.586,276.334 53.954 C 276.334 54.074,276.504 54.172,276.712 54.172 C 277.173 54.172,278.879 56.019,279.465 57.152 C 280.008 58.202,280.012 60.258,279.473 61.299 C 278.911 62.387,279.397 62.384,281.259 61.286 C 282.024 60.834,282.702 60.465,282.766 60.465 C 283.353 60.465,290.014 55.692,290.014 55.271 C 290.014 54.600,288.194 53.390,285.363 52.178 C 283.725 51.477,275.328 48.974,274.615 48.974 C 273.898 48.974,273.452 48.190,274.046 47.974 C 276.782 46.975,278.376 44.735,278.324 41.967 L 278.285 39.945 279.293 39.945 C 280.225 39.945,283.039 39.459,285.393 38.890 C 291.246 37.478,293.661 33.950,291.659 29.739 C 288.559 23.220,264.308 17.927,245.417 19.645 C 243.536 19.816,240.274 20.085,238.167 20.242 C 233.424 20.597,228.959 21.008,226.265 21.336 C 225.137 21.473,223.044 21.726,221.614 21.898 C 212.577 22.982,199.103 25.359,195.349 26.531 C 194.973 26.649,193.988 26.895,193.160 27.080 C 188.222 28.179,174.801 32.548,172.028 33.958 C 171.767 34.091,171.427 34.200,171.273 34.200 C 171.119 34.200,170.471 34.440,169.833 34.733 C 169.195 35.026,166.518 36.182,163.885 37.301 C 161.252 38.421,157.804 39.945,156.224 40.689 C 154.644 41.433,152.305 42.523,151.026 43.112 C 148.320 44.358,141.111 47.986,139.124 49.102 C 135.730 51.008,133.813 52.149,132.368 53.122 C 131.511 53.700,130.736 54.172,130.647 54.172 C 130.495 54.172,128.894 55.238,128.591 55.540 C 128.516 55.616,128.250 55.800,128.000 55.951 C 126.580 56.805,121.416 60.585,118.194 63.128 C 114.169 66.305,109.544 70.513,105.333 74.829 C 99.584 80.721,97.877 82.726,91.245 91.380 C 90.643 92.165,89.596 93.516,88.919 94.383 C 88.242 95.249,87.363 96.375,86.966 96.885 C 86.569 97.394,84.907 99.519,83.273 101.605 C 81.638 103.692,79.794 106.062,79.174 106.871 C 78.555 107.681,77.678 108.805,77.225 109.370 C 76.773 109.935,73.598 113.906,70.171 118.194 C 66.744 122.483,63.541 126.484,63.054 127.086 C 62.567 127.688,60.593 130.150,58.667 132.558 C 53.089 139.531,47.234 146.773,47.055 146.922 C 46.899 147.052,43.159 151.613,38.988 156.763 C 32.384 164.914,30.232 167.442,29.897 167.442 C 29.228 167.442,26.265 165.709,26.265 165.318 C 26.265 164.952,26.824 164.301,30.660 160.197 C 33.998 156.627,40.617 149.302,42.639 146.942 C 43.745 145.652,45.100 144.104,45.650 143.502 C 49.127 139.702,58.620 128.498,64.429 121.341 C 66.383 118.933,68.134 116.778,68.319 116.553 C 69.063 115.647,74.654 108.541,77.253 105.198 C 78.773 103.242,80.223 101.395,80.475 101.094 C 80.726 100.793,83.560 97.222,86.773 93.159 C 92.129 86.383,93.640 84.508,96.584 80.985 C 97.150 80.308,98.376 78.830,99.308 77.702 C 100.239 76.573,101.515 75.034,102.141 74.282 C 106.027 69.618,114.837 61.738,121.595 56.881 C 124.617 54.710,132.623 49.435,133.518 49.026 C 133.745 48.922,135.100 48.150,136.528 47.310 C 137.956 46.470,140.725 44.943,142.681 43.916 C 144.637 42.890,146.423 41.946,146.648 41.819 C 147.010 41.616,150.339 40.056,154.446 38.163 C 155.198 37.817,156.922 37.078,158.276 36.521 C 159.631 35.965,161.354 35.237,162.107 34.903 C 162.859 34.570,163.906 34.139,164.432 33.947 C 164.959 33.755,165.636 33.499,165.937 33.378 C 166.238 33.257,167.223 32.886,168.126 32.554 C 169.029 32.221,170.137 31.792,170.588 31.602 C 171.389 31.263,179.430 28.558,183.094 27.395 C 184.104 27.075,185.121 26.813,185.355 26.813 C 185.589 26.813,185.994 26.703,186.255 26.569 C 186.807 26.286,189.579 25.453,190.971 25.153 C 191.498 25.039,193.345 24.577,195.075 24.126 C 196.806 23.675,199.207 23.096,200.410 22.839 C 206.576 21.526,207.651 21.308,209.166 21.065 C 210.068 20.920,211.546 20.669,212.449 20.508 C 214.847 20.079,217.353 19.707,219.836 19.412 C 221.040 19.269,223.010 19.033,224.213 18.887 C 235.565 17.514,256.132 16.801,263.885 17.511 M314.501 35.006 C 314.049 35.121,313.003 35.367,312.175 35.553 C 309.755 36.097,306.219 37.481,301.443 39.754 C 299.559 40.650,298.998 41.246,300.342 40.923 C 306.212 39.511,307.684 39.322,312.859 39.316 C 315.601 39.313,318.511 39.455,319.425 39.637 C 327.075 41.158,329.999 42.619,341.513 50.670 C 347.871 55.115,358.175 62.938,362.613 66.689 C 364.695 68.449,364.927 68.309,364.763 65.390 L 364.664 63.611 362.726 62.107 C 361.660 61.279,358.992 59.184,356.796 57.451 C 350.698 52.637,335.543 41.587,335.041 41.587 C 334.976 41.587,333.991 40.969,332.850 40.214 C 326.342 35.904,319.071 33.840,314.501 35.006 M255.130 51.071 C 250.980 51.414,241.666 53.154,237.346 54.394 C 227.963 57.087,219.883 60.538,212.205 65.131 C 207.933 67.687,208.161 67.368,209.578 68.812 C 211.252 70.518,209.947 70.969,220.585 65.011 C 225.775 62.104,227.360 61.417,227.360 62.072 C 227.360 62.203,227.894 63.219,228.547 64.329 C 229.200 65.439,230.369 67.426,231.146 68.745 C 231.923 70.064,232.558 71.201,232.558 71.271 C 232.558 71.342,233.030 72.171,233.607 73.114 C 234.184 74.057,234.708 74.952,234.770 75.103 C 235.240 76.233,237.594 79.889,237.849 79.883 C 238.024 79.879,238.721 79.589,239.398 79.239 C 240.896 78.466,240.912 78.607,238.832 74.220 C 237.940 72.337,237.209 70.754,237.209 70.703 C 237.209 70.651,236.670 69.465,236.010 68.068 C 231.917 59.390,231.939 60.603,235.841 58.984 C 240.572 57.022,244.389 56.189,249.932 55.911 C 254.871 55.663,257.657 54.791,259.467 52.927 C 261.428 50.909,260.729 50.610,255.130 51.071 M296.170 52.804 C 296.263 52.955,296.444 53.078,296.572 53.078 C 296.700 53.078,297.708 53.494,298.813 54.004 C 303.007 55.937,304.984 56.830,306.774 57.603 C 309.002 58.564,308.987 58.660,306.409 60.011 C 299.408 63.681,293.718 69.902,290.105 77.839 C 287.936 82.604,286.119 88.946,286.744 89.571 C 286.871 89.698,291.388 89.373,294.186 89.034 C 296.072 88.806,296.088 88.855,294.992 91.528 L 294.226 93.399 292.188 94.034 C 291.067 94.384,289.658 94.810,289.056 94.982 C 288.454 95.154,287.038 95.599,285.910 95.970 C 284.781 96.342,283.488 96.741,283.037 96.858 C 281.311 97.304,271.543 100.849,269.083 101.922 C 268.632 102.119,266.724 102.895,264.843 103.647 C 262.962 104.398,260.622 105.378,259.644 105.823 C 258.666 106.269,257.127 106.967,256.224 107.375 C 249.800 110.276,237.858 116.572,236.334 117.861 C 235.913 118.216,235.908 118.316,236.282 118.885 C 236.905 119.837,237.330 119.874,238.768 119.103 C 240.817 118.005,248.642 114.090,248.789 114.090 C 248.861 114.090,250.995 113.160,253.530 112.023 C 256.065 110.886,258.386 109.856,258.687 109.734 C 259.837 109.268,260.636 108.933,261.588 108.515 C 262.924 107.930,271.649 104.509,272.503 104.235 C 272.880 104.115,274.234 103.629,275.513 103.156 C 277.931 102.262,281.836 100.893,287.365 99.001 C 289.143 98.392,290.672 97.968,290.762 98.058 C 290.999 98.294,291.050 98.265,286.867 100.339 C 281.809 102.849,273.564 107.138,270.315 108.950 C 269.637 109.328,268.345 110.038,267.442 110.529 C 266.539 111.020,265.431 111.636,264.979 111.899 C 264.528 112.161,263.482 112.745,262.654 113.196 C 261.826 113.647,260.041 114.664,258.687 115.456 C 257.332 116.248,255.855 117.111,255.404 117.374 C 254.569 117.859,252.295 119.248,244.460 124.059 C 242.052 125.538,239.780 127.036,239.412 127.388 L 238.741 128.029 239.391 128.720 C 240.252 129.636,240.561 129.599,242.374 128.365 C 246.780 125.366,257.967 118.563,263.748 115.367 C 264.576 114.909,267.100 113.504,269.357 112.244 C 275.984 108.545,299.510 97.009,301.413 96.524 C 301.728 96.444,304.241 99.435,304.241 99.889 C 304.241 100.018,303.656 100.383,302.941 100.700 C 294.963 104.240,278.963 113.489,277.428 115.447 C 277.353 115.543,276.860 115.917,276.334 116.279 C 275.807 116.641,275.315 117.007,275.239 117.093 C 275.164 117.178,274.241 117.915,273.187 118.731 C 261.219 127.993,250.622 140.856,244.463 153.600 C 241.334 160.075,241.047 161.423,242.799 161.423 C 244.002 161.423,243.966 161.468,246.338 157.045 C 252.875 144.861,260.743 134.786,271.556 124.752 C 276.908 119.786,286.613 112.520,291.929 109.498 C 296.986 106.624,298.487 105.821,301.124 104.578 C 305.069 102.720,304.980 102.707,306.205 105.277 L 307.211 107.387 305.274 109.176 C 303.082 111.200,303.088 111.148,304.873 112.684 C 306.460 114.050,306.103 114.045,308.499 112.730 L 310.479 111.644 312.075 112.293 L 313.671 112.942 314.742 112.395 C 315.332 112.094,319.397 109.812,323.776 107.324 C 347.854 93.642,346.129 94.602,346.311 94.783 C 346.458 94.930,345.748 95.600,340.492 100.276 C 338.837 101.749,336.928 103.459,336.249 104.076 C 335.570 104.693,333.908 106.183,332.555 107.386 C 331.203 108.589,330.034 109.636,329.959 109.711 C 329.884 109.787,328.838 110.711,327.634 111.765 C 322.197 116.523,322.209 116.426,327.223 115.140 C 356.336 107.671,367.496 90.482,352.449 76.290 C 349.194 73.220,346.863 71.499,341.382 68.119 C 340.667 67.678,340.082 67.125,340.082 66.890 C 340.082 64.575,336.494 58.263,333.280 54.925 C 330.589 52.129,329.614 51.745,331.548 54.241 C 334.911 58.583,336.847 65.918,334.166 64.161 C 329.430 61.059,319.163 57.010,310.534 54.842 C 309.555 54.596,308.447 54.334,308.071 54.260 C 307.695 54.185,306.464 53.941,305.335 53.717 C 299.635 52.588,295.800 52.206,296.170 52.804 M267.168 58.030 C 266.265 58.158,264.911 58.432,264.159 58.640 L 262.791 59.017 263.748 59.451 C 264.275 59.690,265.318 60.104,266.066 60.372 C 272.343 62.620,269.171 67.694,258.753 72.066 C 254.900 73.683,255.183 73.843,254.704 69.767 C 253.875 62.712,254.151 63.342,251.894 63.340 L 250.205 63.338 250.132 70.321 L 250.059 77.303 247.396 79.138 C 245.932 80.147,242.640 82.428,240.082 84.207 C 237.524 85.985,234.200 88.286,232.695 89.318 C 225.630 94.165,225.827 93.937,228.475 94.213 C 230.245 94.399,231.544 93.858,236.799 90.747 C 237.551 90.301,238.721 89.631,239.398 89.256 C 241.529 88.079,249.864 83.129,251.443 82.104 C 252.274 81.564,253.156 80.999,253.402 80.848 C 262.295 75.417,270.666 68.960,273.225 65.556 C 277.479 59.897,275.078 56.913,267.168 58.030 M284.542 65.305 C 282.461 65.461,281.983 65.629,282.351 66.072 C 283.446 67.391,277.663 72.778,270.159 77.428 C 269.795 77.654,268.271 78.610,266.772 79.552 C 265.273 80.495,263.857 81.339,263.624 81.428 C 262.439 81.883,263.506 82.100,266.748 82.063 C 270.091 82.025,270.357 81.981,271.388 81.299 C 273.326 80.015,279.970 75.172,281.943 73.604 C 282.996 72.767,284.589 71.530,285.483 70.856 C 291.812 66.086,291.589 64.774,284.542 65.305 M313.269 67.171 C 316.566 67.640,318.416 67.983,319.973 68.415 C 320.575 68.582,321.407 68.784,321.823 68.864 C 323.786 69.243,322.906 69.532,318.605 69.923 C 314.102 70.331,308.419 71.799,303.215 73.897 C 302.876 74.033,302.322 74.256,301.984 74.392 C 300.982 74.794,297.577 76.334,297.063 76.618 C 296.097 77.152,295.212 76.942,295.212 76.179 C 295.212 74.574,296.416 73.727,302.563 71.013 L 306.221 69.398 306.064 68.078 L 305.908 66.758 308.152 66.760 C 309.387 66.761,311.689 66.946,313.269 67.171 M369.798 71.408 C 370.309 72.893,370.721 75.643,370.723 77.596 C 370.727 80.943,370.388 81.935,366.342 90.424 C 365.409 92.380,364.242 94.843,363.748 95.896 C 362.097 99.418,359.012 105.940,356.631 110.944 C 353.592 117.328,353.762 116.779,353.762 120.238 C 353.762 121.955,353.864 123.423,353.988 123.500 C 354.113 123.577,355.675 120.660,357.459 117.018 C 359.244 113.376,363.113 105.531,366.057 99.584 C 373.199 85.155,374.316 81.489,372.946 76.990 C 372.813 76.554,372.541 75.643,372.343 74.966 C 371.807 73.140,370.441 70.748,369.791 70.498 C 369.504 70.388,369.505 70.559,369.798 71.408 M335.910 77.605 C 337.476 77.794,337.790 78.313,336.884 79.219 C 336.504 79.599,336.111 79.650,334.692 79.505 C 332.586 79.289,323.057 79.774,318.741 80.317 C 317.011 80.534,315.041 80.780,314.364 80.862 C 313.687 80.944,312.702 81.120,312.175 81.252 C 311.648 81.383,310.479 81.642,309.576 81.826 C 308.673 82.010,307.257 82.339,306.430 82.557 C 305.602 82.775,304.494 83.048,303.967 83.163 C 303.440 83.279,301.950 83.746,300.654 84.203 C 298.167 85.078,298.048 85.071,297.317 84.002 C 296.579 82.924,296.726 82.756,299.111 81.957 C 309.028 78.637,326.900 76.523,335.910 77.605 M342.350 84.204 C 342.829 84.734,342.766 84.774,338.792 86.456 C 336.567 87.398,333.479 88.707,331.930 89.365 C 330.381 90.023,329.061 90.561,328.996 90.561 C 328.931 90.561,328.072 90.930,327.086 91.382 C 326.101 91.833,325.239 92.202,325.172 92.202 C 325.104 92.202,324.399 92.498,323.605 92.859 C 322.811 93.220,321.115 93.949,319.836 94.480 C 318.557 95.011,315.867 96.140,313.860 96.990 C 311.852 97.840,310.176 98.496,310.135 98.447 C 309.299 97.451,309.258 96.126,310.055 95.877 C 310.393 95.771,311.286 95.409,312.038 95.072 C 312.791 94.735,316.238 93.260,319.699 91.793 C 323.160 90.326,326.484 88.908,327.086 88.643 C 327.688 88.377,329.843 87.455,331.874 86.594 C 333.906 85.733,336.075 84.800,336.694 84.521 C 340.509 82.804,341.055 82.773,342.350 84.204 M259.781 89.304 C 258.878 89.644,255.923 90.751,253.215 91.763 C 245.707 94.571,243.920 95.252,242.066 96.012 C 241.727 96.150,240.873 96.472,240.168 96.726 C 239.463 96.980,238.817 97.369,238.732 97.590 C 238.408 98.433,242.234 97.898,245.691 96.616 C 247.421 95.974,249.514 95.221,250.342 94.942 C 251.170 94.663,253.817 93.736,256.224 92.881 C 258.632 92.027,260.923 91.231,261.316 91.111 C 263.197 90.540,263.618 89.929,262.701 89.098 C 262.069 88.527,261.794 88.546,259.781 89.304 M272.731 91.910 C 266.592 92.079,266.837 92.034,266.754 93.023 C 266.633 94.475,266.572 94.446,269.425 94.279 C 270.893 94.194,274.432 93.994,277.291 93.834 C 283.637 93.481,283.698 93.470,283.649 92.680 C 283.578 91.549,284.202 91.593,272.731 91.910 M293.434 113.948 C 290.998 114.370,289.283 115.050,286.594 116.661 C 282.895 118.876,275.535 126.072,273.405 129.556 C 267.650 138.968,267.440 148.503,272.687 162.107 C 273.209 163.461,273.886 165.246,274.191 166.074 C 274.496 166.902,274.845 167.825,274.966 168.126 C 275.087 168.427,275.456 169.412,275.787 170.315 C 276.117 171.218,276.485 172.202,276.606 172.503 C 276.726 172.804,277.768 175.944,278.923 179.480 C 280.077 183.016,281.249 186.402,281.527 187.004 C 281.805 187.606,282.526 189.173,283.130 190.486 C 287.643 200.309,298.322 208.039,307.387 208.044 C 311.636 208.047,314.405 207.322,320.109 204.711 C 331.069 199.695,336.048 198.606,339.045 200.570 C 343.404 203.427,340.688 212.683,334.192 217.106 C 329.796 220.099,319.605 222.171,313.202 221.373 C 304.606 220.302,300.591 217.951,294.693 210.534 C 288.780 203.098,281.922 196.962,269.767 188.232 C 262.721 183.171,257.378 176.700,256.462 172.116 C 256.045 170.034,255.678 171.537,255.722 175.144 C 255.839 184.906,261.109 194.525,267.852 197.286 C 276.166 200.691,280.498 204.104,287.267 212.585 C 291.777 218.236,298.930 225.171,300.247 225.171 C 300.324 225.171,300.996 225.531,301.742 225.970 C 310.602 231.194,326.704 229.806,336.799 222.948 C 349.295 214.458,351.922 199.112,341.724 194.174 C 336.608 191.697,332.033 191.268,329.174 192.997 C 313.867 202.255,300.393 203.166,292.983 195.443 C 287.661 189.895,282.869 175.731,282.631 164.843 C 282.628 164.692,282.244 164.138,281.778 163.611 C 276.069 157.156,273.393 145.207,276.091 138.222 C 276.225 137.877,276.334 137.317,276.334 136.978 C 276.334 136.639,276.432 136.244,276.552 136.101 C 276.671 135.958,276.934 135.349,277.135 134.747 C 280.706 124.062,289.739 117.136,300.752 116.639 C 304.219 116.482,305.246 116.229,304.036 115.831 C 303.772 115.744,303.152 115.494,302.657 115.274 C 301.327 114.685,299.361 114.150,297.811 113.957 C 297.059 113.863,296.197 113.748,295.896 113.701 C 295.595 113.654,294.487 113.765,293.434 113.948 M302.028 120.800 C 292.303 122.442,285.890 127.553,281.782 136.936 C 277.554 146.594,282.994 153.057,297.750 155.909 C 299.318 156.212,299.590 155.908,299.590 153.848 C 299.590 152.500,300.468 146.783,300.958 144.938 C 301.573 142.626,301.734 142.074,302.170 140.766 C 302.421 140.014,302.731 139.152,302.859 138.851 C 305.773 131.975,308.354 127.878,312.557 123.455 C 314.594 121.312,314.503 121.195,310.462 120.749 C 306.692 120.333,304.724 120.345,302.028 120.800 M295.075 158.075 C 294.924 158.186,294.621 158.646,294.401 159.097 C 294.181 159.549,293.800 160.226,293.555 160.602 C 293.310 160.978,292.518 162.394,291.796 163.748 C 291.074 165.103,290.255 166.537,289.975 166.937 C 289.695 167.336,289.466 167.714,289.466 167.777 C 289.466 167.839,288.666 169.223,287.688 170.851 C 286.158 173.399,285.910 173.996,285.910 175.125 C 285.910 176.689,286.266 177.036,286.804 175.995 C 287.018 175.579,289.244 171.685,291.750 167.342 C 296.442 159.209,296.576 158.917,295.916 158.257 C 295.468 157.809,295.445 157.804,295.075 158.075 M297.603 162.174 C 297.210 163.040,296.525 164.549,296.083 165.527 C 295.640 166.505,294.832 168.268,294.287 169.445 C 293.743 170.623,293.297 171.623,293.297 171.668 C 293.297 171.714,292.636 173.152,291.827 174.863 C 288.598 181.703,288.599 181.700,289.268 183.584 C 289.979 185.587,290.326 185.693,290.840 184.063 C 291.042 183.423,291.288 182.777,291.387 182.627 C 291.486 182.476,291.975 181.306,292.474 180.027 C 292.972 178.748,293.608 177.185,293.886 176.554 C 294.164 175.923,294.391 175.326,294.391 175.227 C 294.391 175.129,294.588 174.599,294.830 174.050 C 295.071 173.500,295.362 172.804,295.477 172.503 C 295.754 171.779,296.158 170.802,296.666 169.631 C 299.496 163.099,299.873 161.630,298.886 160.975 C 298.351 160.621,298.278 160.688,297.603 162.174 M301.535 163.282 C 301.396 163.540,300.729 165.352,300.052 167.307 C 299.376 169.262,298.065 173.016,297.140 175.650 C 296.215 178.283,295.105 181.484,294.673 182.763 C 294.241 184.042,293.460 186.260,292.937 187.691 L 291.986 190.293 292.486 191.267 C 293.639 193.513,293.760 193.431,294.928 189.603 C 295.410 188.023,296.025 186.053,296.294 185.226 C 297.149 182.593,297.725 180.736,297.947 179.891 C 298.066 179.439,298.988 176.423,299.997 173.187 C 301.679 167.793,302.655 164.598,302.910 163.654 C 303.073 163.051,301.837 162.717,301.535 163.282 M305.484 166.005 C 305.382 166.720,305.189 167.736,305.056 168.263 C 304.924 168.789,304.553 170.636,304.234 172.367 C 303.914 174.097,303.538 176.067,303.397 176.744 C 303.257 177.421,302.896 179.268,302.596 180.848 C 302.296 182.428,301.926 184.337,301.775 185.089 C 299.122 198.284,299.119 198.056,301.954 198.354 C 302.098 198.369,302.380 197.176,302.625 195.514 C 302.783 194.445,303.032 192.832,303.178 191.929 C 303.324 191.026,303.556 189.549,303.694 188.646 C 303.831 187.743,304.073 186.204,304.231 185.226 C 304.390 184.248,304.635 182.647,304.776 181.669 C 305.080 179.561,306.258 172.186,306.865 168.590 C 307.258 166.263,307.257 165.988,306.856 165.376 C 306.167 164.324,305.695 164.541,305.484 166.005 M310.949 172.632 C 310.859 172.778,310.667 173.855,310.523 175.026 C 310.379 176.197,310.138 178.016,309.986 179.070 C 309.835 180.123,309.594 181.908,309.452 183.037 C 309.309 184.166,309.130 185.458,309.054 185.910 C 308.978 186.361,308.787 187.715,308.630 188.919 C 308.051 193.346,307.511 197.148,307.352 197.919 L 307.189 198.712 308.349 198.526 C 310.601 198.166,310.483 198.525,311.345 189.466 C 311.502 187.811,311.877 183.985,312.177 180.963 C 312.866 174.021,312.865 173.917,312.075 173.065 C 311.367 172.300,311.195 172.234,310.949 172.632 M323.464 174.624 C 321.809 178.076,321.533 189.147,323.005 192.983 C 323.269 193.671,323.980 193.371,325.589 191.894 L 326.281 191.258 325.934 187.900 C 325.743 186.053,325.453 183.249,325.290 181.669 C 325.126 180.089,324.935 177.996,324.864 177.018 C 324.690 174.610,324.541 174.008,324.118 174.008 C 323.920 174.008,323.626 174.285,323.464 174.624 M201.094 203.001 C 205.443 205.931,210.676 207.912,218.468 209.574 C 225.848 211.149,239.491 211.807,250.410 211.116 C 254.343 210.867,255.170 211.080,252.873 211.751 C 243.813 214.398,232.787 225.568,225.524 239.459 C 224.730 240.976,224.437 241.172,222.611 241.411 C 220.925 241.631,220.971 241.299,223.114 237.765 C 228.227 229.332,235.378 220.836,241.252 216.211 C 243.142 214.724,242.920 214.616,237.442 214.362 L 233.160 214.163 231.970 214.983 C 228.816 217.154,223.714 222.930,219.829 228.727 C 217.708 231.892,213.133 240.401,213.133 241.180 C 213.133 242.541,212.234 242.227,210.300 240.189 C 202.701 232.185,199.632 228.937,198.373 227.568 C 196.780 225.837,196.443 225.795,196.443 227.326 C 196.443 231.434,193.622 237.282,189.899 240.890 C 188.618 242.131,188.558 241.959,189.331 239.260 C 192.184 229.313,192.859 216.246,190.965 207.661 C 190.816 206.984,190.613 206.005,190.514 205.487 L 190.335 204.545 191.406 205.189 C 197.257 208.709,199.871 210.100,199.948 209.736 C 199.995 209.516,199.287 207.137,198.375 204.449 C 197.463 201.761,196.717 199.500,196.717 199.425 C 196.717 199.350,197.363 199.895,198.153 200.637 C 198.943 201.379,200.267 202.443,201.094 203.001 " stroke="none" fill="#f8f8f8" fill-rule="evenodd"></path><path id="path1" d="M238.714 17.659 C 232.585 18.068,227.256 18.519,224.213 18.887 C 223.010 19.033,221.040 19.269,219.836 19.412 C 217.353 19.707,214.847 20.079,212.449 20.508 C 211.546 20.669,210.068 20.920,209.166 21.065 C 207.651 21.308,206.576 21.526,200.410 22.839 C 199.207 23.096,196.806 23.675,195.075 24.126 C 193.345 24.577,191.498 25.039,190.971 25.153 C 189.579 25.453,186.807 26.286,186.255 26.569 C 185.994 26.703,185.589 26.813,185.355 26.813 C 185.121 26.813,184.104 27.075,183.094 27.395 C 179.430 28.558,171.389 31.263,170.588 31.602 C 170.137 31.792,169.029 32.221,168.126 32.554 C 167.223 32.886,166.238 33.257,165.937 33.378 C 165.636 33.499,164.959 33.755,164.432 33.947 C 163.906 34.139,162.859 34.570,162.107 34.903 C 161.354 35.237,159.631 35.965,158.276 36.521 C 156.922 37.078,155.198 37.817,154.446 38.163 C 150.339 40.056,147.010 41.616,146.648 41.819 C 146.423 41.946,144.637 42.890,142.681 43.916 C 140.725 44.943,137.956 46.470,136.528 47.310 C 135.100 48.150,133.745 48.922,133.518 49.026 C 132.623 49.435,124.617 54.710,121.595 56.881 C 114.837 61.738,106.027 69.618,102.141 74.282 C 101.515 75.034,100.239 76.573,99.308 77.702 C 98.376 78.830,97.150 80.308,96.584 80.985 C 93.640 84.508,92.129 86.383,86.773 93.159 C 83.560 97.222,80.726 100.793,80.475 101.094 C 80.223 101.395,78.773 103.242,77.253 105.198 C 74.654 108.541,69.063 115.647,68.319 116.553 C 68.134 116.778,66.383 118.933,64.429 121.341 C 58.620 128.498,49.127 139.702,45.650 143.502 C 45.100 144.104,43.745 145.652,42.639 146.942 C 40.617 149.302,33.998 156.627,30.660 160.197 C 26.824 164.301,26.265 164.952,26.265 165.318 C 26.265 165.709,29.228 167.442,29.897 167.442 C 30.232 167.442,32.384 164.914,38.988 156.763 C 43.159 151.613,46.899 147.052,47.055 146.922 C 47.234 146.773,53.089 139.531,58.667 132.558 C 60.593 130.150,62.567 127.688,63.054 127.086 C 63.541 126.484,66.744 122.483,70.171 118.194 C 73.598 113.906,76.773 109.935,77.225 109.370 C 77.678 108.805,78.555 107.681,79.174 106.871 C 79.794 106.062,81.638 103.692,83.273 101.605 C 84.907 99.519,86.569 97.394,86.966 96.885 C 87.363 96.375,88.242 95.249,88.919 94.383 C 89.596 93.516,90.643 92.165,91.245 91.380 C 97.877 82.726,99.584 80.721,105.333 74.829 C 109.544 70.513,114.169 66.305,118.194 63.128 C 121.416 60.585,126.580 56.805,128.000 55.951 C 128.250 55.800,128.516 55.616,128.591 55.540 C 128.894 55.238,130.495 54.172,130.647 54.172 C 130.736 54.172,131.511 53.700,132.368 53.122 C 133.813 52.149,135.730 51.008,139.124 49.102 C 141.111 47.986,148.320 44.358,151.026 43.112 C 152.305 42.523,154.644 41.433,156.224 40.689 C 157.804 39.945,161.252 38.421,163.885 37.301 C 166.518 36.182,169.195 35.026,169.833 34.733 C 170.471 34.440,171.119 34.200,171.273 34.200 C 171.427 34.200,171.767 34.091,172.028 33.958 C 174.801 32.548,188.222 28.179,193.160 27.080 C 193.988 26.895,194.973 26.649,195.349 26.531 C 199.103 25.359,212.577 22.982,221.614 21.898 C 223.044 21.726,225.137 21.473,226.265 21.336 C 228.959 21.008,233.424 20.597,238.167 20.242 C 240.274 20.085,243.536 19.816,245.417 19.645 C 264.308 17.927,288.559 23.220,291.659 29.739 C 293.661 33.950,291.246 37.478,285.393 38.890 C 283.039 39.459,280.225 39.945,279.293 39.945 L 278.285 39.945 278.324 41.967 C 278.376 44.735,276.782 46.975,274.046 47.974 C 273.452 48.190,273.898 48.974,274.615 48.974 C 275.328 48.974,283.725 51.477,285.363 52.178 C 288.194 53.390,290.014 54.600,290.014 55.271 C 290.014 55.692,283.353 60.465,282.766 60.465 C 282.702 60.465,282.024 60.834,281.259 61.286 C 279.397 62.384,278.911 62.387,279.473 61.299 C 280.012 60.258,280.008 58.202,279.465 57.152 C 278.879 56.019,277.173 54.172,276.712 54.172 C 276.504 54.172,276.334 54.074,276.334 53.954 C 276.334 53.586,272.504 51.787,269.904 50.934 C 262.743 48.584,251.214 47.264,238.587 47.347 C 231.523 47.394,231.272 47.334,232.527 45.904 C 235.821 42.153,246.069 40.218,260.670 40.590 C 264.394 40.684,268.150 40.840,269.015 40.935 C 270.874 41.139,271.015 40.865,269.809 39.392 C 265.513 34.149,263.766 31.465,264.387 31.058 C 267.141 29.254,278.447 29.077,282.667 30.773 C 282.915 30.872,283.192 30.835,283.282 30.689 C 283.550 30.255,280.670 28.593,277.018 27.076 C 274.899 26.196,270.615 25.066,266.758 24.370 C 260.248 23.197,246.744 23.318,238.304 24.626 C 237.326 24.778,235.663 25.019,234.610 25.162 C 233.557 25.306,232.018 25.566,231.190 25.740 C 230.363 25.914,229.131 26.158,228.454 26.283 C 224.286 27.053,224.083 27.099,216.963 28.853 C 213.566 29.690,210.445 30.507,206.977 31.465 C 206.525 31.590,205.294 31.959,204.241 32.285 C 202.457 32.836,201.694 33.058,199.590 33.635 C 196.724 34.421,182.725 39.415,179.070 40.956 C 178.167 41.337,177.120 41.774,176.744 41.928 C 144.390 55.156,118.345 72.861,100.000 94.097 C 98.646 95.665,97.036 97.511,96.423 98.200 C 95.810 98.889,94.579 100.376,93.687 101.505 C 92.795 102.633,91.910 103.721,91.720 103.922 C 91.529 104.124,91.037 104.739,90.627 105.290 C 90.216 105.842,89.817 106.354,89.740 106.430 C 89.568 106.598,85.939 111.505,85.289 112.449 C 85.029 112.825,84.082 114.179,83.183 115.458 C 82.284 116.737,78.821 121.847,75.487 126.813 C 67.565 138.613,61.634 146.990,57.341 152.441 C 53.532 157.278,51.236 160.134,50.479 160.980 C 50.328 161.148,49.282 162.394,48.154 163.748 C 47.025 165.103,46.041 166.272,45.965 166.347 C 43.473 168.830,43.424 169.398,45.748 168.900 C 46.695 168.696,48.393 168.343,49.521 168.115 C 57.776 166.446,72.488 166.401,82.627 168.014 C 87.786 168.835,88.705 169.004,90.029 169.371 C 90.698 169.557,91.676 169.805,92.202 169.922 C 98.026 171.215,106.323 174.156,112.722 177.194 C 114.152 177.873,115.626 178.572,115.998 178.749 C 125.839 183.416,138.111 192.495,148.023 202.442 C 152.461 206.895,154.380 208.990,157.315 212.586 C 157.990 213.413,158.616 214.152,158.707 214.227 C 158.797 214.302,160.255 216.211,161.945 218.468 C 163.636 220.725,165.296 222.941,165.634 223.393 C 166.531 224.589,172.093 233.052,172.093 233.220 C 172.093 233.526,174.595 237.209,174.803 237.209 C 175.317 237.209,180.027 228.494,180.027 227.543 C 180.027 227.342,180.109 227.096,180.209 226.996 C 181.836 225.368,184.684 211.987,184.680 205.981 L 184.679 202.797 181.720 199.825 C 175.444 193.521,170.576 185.732,167.978 177.839 C 167.378 176.018,167.183 175.662,167.075 176.198 C 166.855 177.282,166.342 184.896,166.345 187.020 C 166.355 194.254,160.758 182.479,157.298 167.989 C 156.041 162.723,153.762 148.725,153.762 146.269 C 153.762 144.761,153.315 144.597,150.404 145.036 C 147.040 145.544,133.172 145.558,130.096 145.057 C 128.892 144.861,127.107 144.578,126.129 144.429 C 125.150 144.280,123.796 144.032,123.119 143.879 C 122.442 143.726,121.334 143.478,120.657 143.329 C 115.485 142.188,108.340 139.651,103.557 137.257 C 94.160 132.556,91.108 129.595,91.108 125.179 C 91.108 120.162,95.368 116.871,110.465 110.225 C 111.980 109.558,113.624 108.828,115.321 108.069 C 117.795 106.963,123.230 104.199,123.976 103.668 C 124.379 103.381,124.788 103.146,124.886 103.146 C 125.116 103.146,128.220 101.059,129.230 100.226 C 130.655 99.050,130.653 99.573,129.216 102.873 C 127.487 106.846,127.245 107.505,127.464 107.641 C 127.955 107.944,134.288 106.481,137.551 105.311 C 139.942 104.453,142.072 103.666,142.681 103.415 C 142.982 103.290,143.782 102.964,144.460 102.689 C 153.337 99.083,165.372 90.992,173.588 83.105 C 175.946 80.842,176.125 81.003,174.930 84.316 C 173.799 87.450,170.209 92.667,167.804 94.670 C 167.530 94.899,166.497 95.770,165.510 96.607 C 163.308 98.472,159.107 101.246,155.814 103.009 C 154.460 103.734,153.167 104.431,152.941 104.558 C 151.239 105.515,143.312 108.705,139.124 110.118 C 137.055 110.817,131.456 112.404,127.102 113.526 C 121.508 114.969,121.551 114.914,125.581 115.433 C 134.691 116.606,146.581 114.764,157.592 110.474 C 161.735 108.860,170.408 103.936,172.434 102.048 C 174.403 100.213,173.842 102.706,171.499 106.204 C 169.053 109.855,163.380 114.240,158.687 116.108 C 158.010 116.377,157.086 116.763,156.635 116.966 C 149.361 120.233,138.484 121.917,122.298 122.283 C 111.910 122.518,111.316 122.601,109.755 124.034 C 106.421 127.097,109.253 131.679,115.869 133.924 C 123.086 136.373,136.266 137.574,144.380 136.523 C 150.679 135.706,150.697 135.703,156.088 134.594 C 161.450 133.490,170.229 129.945,175.166 126.890 C 177.732 125.303,178.131 125.241,177.853 126.477 C 177.064 129.974,170.897 135.702,164.295 139.067 C 161.645 140.419,161.565 140.846,162.980 146.101 C 163.203 146.929,163.483 147.975,163.602 148.427 C 164.050 150.121,165.308 153.676,165.953 155.069 C 166.320 155.863,166.621 156.581,166.621 156.664 C 166.621 156.746,167.310 158.190,168.153 159.871 C 173.779 171.099,183.406 181.174,194.665 187.619 C 196.811 188.847,202.030 191.518,202.284 191.518 C 202.375 191.518,203.221 191.866,204.166 192.291 C 207.407 193.750,214.478 196.030,218.741 196.990 C 219.494 197.160,220.540 197.407,221.067 197.538 C 221.594 197.670,222.825 197.918,223.803 198.089 C 224.781 198.260,226.135 198.504,226.813 198.630 C 228.049 198.862,230.694 199.213,235.021 199.721 C 242.360 200.583,258.603 200.597,266.057 199.749 C 271.022 199.184,278.226 204.188,285.323 213.133 C 295.954 226.531,303.263 230.956,314.799 230.975 C 332.508 231.006,346.620 221.610,349.536 207.848 C 351.215 199.928,347.372 193.768,338.962 190.896 C 338.629 190.783,338.988 190.263,340.466 188.717 C 344.390 184.614,346.432 178.220,347.046 168.112 C 347.239 164.940,347.151 164.739,345.995 165.709 C 344.711 166.787,340.983 170.125,339.198 171.795 C 338.328 172.609,337.578 173.224,337.532 173.163 C 337.327 172.890,336.009 167.652,335.563 165.337 C 335.311 164.030,334.845 164.460,333.945 166.833 C 332.011 171.929,328.133 176.669,326.902 175.438 C 326.657 175.193,325.706 171.157,325.387 169.008 C 325.109 167.134,324.440 167.471,323.062 170.178 C 320.622 174.971,320.278 175.250,319.355 173.187 C 319.052 172.510,318.530 171.341,318.195 170.588 C 314.261 161.752,314.774 162.234,313.831 166.484 C 313.497 167.989,313.172 169.384,313.110 169.585 C 312.950 170.096,312.475 169.875,312.020 169.076 C 309.563 164.768,308.892 163.527,308.892 163.293 C 308.892 163.142,307.465 161.561,305.722 159.780 L 302.551 156.541 302.862 154.946 C 304.901 144.477,309.034 134.779,315.369 125.596 C 317.048 123.161,317.106 123.123,319.973 122.549 C 320.725 122.398,321.833 122.171,322.435 122.045 C 326.634 121.163,329.234 120.657,329.569 120.657 C 330.049 120.657,330.083 123.990,329.700 133.516 C 329.163 146.876,329.102 152.668,329.501 152.668 C 330.079 152.668,337.346 143.211,337.346 142.458 C 337.346 142.377,337.950 141.326,338.689 140.123 C 340.444 137.263,343.822 130.330,345.573 125.992 C 347.150 122.084,349.932 113.817,349.932 113.035 C 349.932 112.382,350.408 112.986,350.599 113.879 C 350.703 114.372,350.901 116.252,351.038 118.057 C 351.174 119.863,351.425 122.941,351.595 124.897 C 351.765 126.854,351.983 129.439,352.080 130.643 C 352.178 131.847,352.373 132.832,352.515 132.832 C 353.269 132.832,359.029 121.669,362.469 113.543 C 363.520 111.060,364.837 108.044,365.396 106.840 C 365.955 105.636,367.185 102.927,368.130 100.821 C 369.074 98.714,370.212 96.190,370.658 95.212 C 371.104 94.234,371.635 92.941,371.838 92.339 C 372.041 91.737,372.291 91.122,372.394 90.971 C 372.634 90.620,374.010 86.343,374.287 85.089 C 376.565 74.748,375.137 68.861,368.843 62.648 C 363.754 57.625,345.375 43.968,338.235 39.904 C 336.251 38.775,335.504 38.342,334.154 37.542 C 331.439 35.931,325.776 33.315,323.256 32.506 C 319.988 31.458,315.398 31.207,308.618 31.707 C 302.773 32.137,300.164 31.276,292.831 26.496 C 280.367 18.369,265.203 15.893,238.714 17.659 M321.529 35.151 C 325.350 36.044,329.057 37.702,332.850 40.214 C 333.991 40.969,334.976 41.587,335.041 41.587 C 335.543 41.587,350.698 52.637,356.796 57.451 C 358.992 59.184,361.660 61.279,362.726 62.107 L 364.664 63.611 364.763 65.390 C 364.927 68.309,364.695 68.449,362.613 66.689 C 358.175 62.938,347.871 55.115,341.513 50.670 C 329.999 42.619,327.075 41.158,319.425 39.637 C 318.511 39.455,315.601 39.313,312.859 39.316 C 307.684 39.322,306.212 39.511,300.342 40.923 C 298.998 41.246,299.559 40.650,301.443 39.754 C 306.219 37.481,309.755 36.097,312.175 35.553 C 313.003 35.367,314.049 35.121,314.501 35.006 C 315.901 34.649,319.718 34.727,321.529 35.151 M260.548 51.424 C 259.906 53.877,255.789 55.617,249.932 55.911 C 244.389 56.189,240.572 57.022,235.841 58.984 C 231.939 60.603,231.917 59.390,236.010 68.068 C 236.670 69.465,237.209 70.651,237.209 70.703 C 237.209 70.754,237.940 72.337,238.832 74.220 C 240.912 78.607,240.896 78.466,239.398 79.239 C 238.721 79.589,238.024 79.879,237.849 79.883 C 237.594 79.889,235.240 76.233,234.770 75.103 C 234.708 74.952,234.184 74.057,233.607 73.114 C 233.030 72.171,232.558 71.342,232.558 71.271 C 232.558 71.201,231.923 70.064,231.146 68.745 C 230.369 67.426,229.200 65.439,228.547 64.329 C 227.894 63.219,227.360 62.203,227.360 62.072 C 227.360 61.417,225.775 62.104,220.585 65.011 C 209.947 70.969,211.252 70.518,209.578 68.812 C 208.161 67.368,207.933 67.687,212.205 65.131 C 220.515 60.160,231.734 55.552,240.219 53.627 C 250.495 51.294,260.876 50.170,260.548 51.424 M300.958 52.926 C 302.237 53.137,304.207 53.494,305.335 53.717 C 306.464 53.941,307.695 54.185,308.071 54.260 C 315.988 55.828,328.960 60.750,334.166 64.161 C 336.847 65.918,334.911 58.583,331.548 54.241 C 329.614 51.745,330.589 52.129,333.280 54.925 C 336.494 58.263,340.082 64.575,340.082 66.890 C 340.082 67.125,340.667 67.678,341.382 68.119 C 346.863 71.499,349.194 73.220,352.449 76.290 C 359.365 82.813,360.939 89.437,357.274 96.601 C 353.206 104.550,342.319 111.267,327.223 115.140 C 322.209 116.426,322.197 116.523,327.634 111.765 C 328.838 110.711,329.884 109.787,329.959 109.711 C 330.034 109.636,331.203 108.589,332.555 107.386 C 333.908 106.183,335.570 104.693,336.249 104.076 C 336.928 103.459,338.837 101.749,340.492 100.276 C 345.748 95.600,346.458 94.930,346.311 94.783 C 346.129 94.602,347.854 93.642,323.776 107.324 C 319.397 109.812,315.332 112.094,314.742 112.395 L 313.671 112.942 312.075 112.293 L 310.479 111.644 308.499 112.730 C 306.103 114.045,306.460 114.050,304.873 112.684 C 303.088 111.148,303.082 111.200,305.274 109.176 L 307.211 107.387 306.205 105.277 C 304.980 102.707,305.069 102.720,301.124 104.578 C 298.487 105.821,296.986 106.624,291.929 109.498 C 286.613 112.520,276.908 119.786,271.556 124.752 C 260.743 134.786,252.875 144.861,246.338 157.045 C 243.966 161.468,244.002 161.423,242.799 161.423 C 241.047 161.423,241.334 160.075,244.463 153.600 C 250.622 140.856,261.219 127.993,273.187 118.731 C 274.241 117.915,275.164 117.178,275.239 117.093 C 275.315 117.007,275.807 116.641,276.334 116.279 C 276.860 115.917,277.353 115.543,277.428 115.447 C 278.963 113.489,294.963 104.240,302.941 100.700 C 303.656 100.383,304.241 100.018,304.241 99.889 C 304.241 99.435,301.728 96.444,301.413 96.524 C 299.510 97.009,275.984 108.545,269.357 112.244 C 267.100 113.504,264.576 114.909,263.748 115.367 C 257.967 118.563,246.780 125.366,242.374 128.365 C 240.561 129.599,240.252 129.636,239.391 128.720 L 238.741 128.029 239.412 127.388 C 239.780 127.036,242.052 125.538,244.460 124.059 C 252.295 119.248,254.569 117.859,255.404 117.374 C 255.855 117.111,257.332 116.248,258.687 115.456 C 260.041 114.664,261.826 113.647,262.654 113.196 C 263.482 112.745,264.528 112.161,264.979 111.899 C 265.431 111.636,266.539 111.020,267.442 110.529 C 268.345 110.038,269.637 109.328,270.315 108.950 C 273.564 107.138,281.809 102.849,286.867 100.339 C 291.050 98.265,290.999 98.294,290.762 98.058 C 290.672 97.968,289.143 98.392,287.365 99.001 C 281.836 100.893,277.931 102.262,275.513 103.156 C 274.234 103.629,272.880 104.115,272.503 104.235 C 271.649 104.509,262.924 107.930,261.588 108.515 C 260.636 108.933,259.837 109.268,258.687 109.734 C 258.386 109.856,256.065 110.886,253.530 112.023 C 250.995 113.160,248.861 114.090,248.789 114.090 C 248.642 114.090,240.817 118.005,238.768 119.103 C 237.330 119.874,236.905 119.837,236.282 118.885 C 235.908 118.316,235.913 118.216,236.334 117.861 C 237.858 116.572,249.800 110.276,256.224 107.375 C 257.127 106.967,258.666 106.269,259.644 105.823 C 260.622 105.378,262.962 104.398,264.843 103.647 C 266.724 102.895,268.632 102.119,269.083 101.922 C 271.543 100.849,281.311 97.304,283.037 96.858 C 283.488 96.741,284.781 96.342,285.910 95.970 C 287.038 95.599,288.454 95.154,289.056 94.982 C 289.658 94.810,291.067 94.384,292.188 94.034 L 294.226 93.399 294.992 91.528 C 296.088 88.855,296.072 88.806,294.186 89.034 C 291.388 89.373,286.871 89.698,286.744 89.571 C 286.119 88.946,287.936 82.604,290.105 77.839 C 293.718 69.902,299.408 63.681,306.409 60.011 C 308.987 58.660,309.002 58.564,306.774 57.603 C 304.984 56.830,303.007 55.937,298.813 54.004 C 297.708 53.494,296.700 53.078,296.572 53.078 C 296.444 53.078,296.263 52.955,296.170 52.804 C 295.927 52.411,298.198 52.469,300.958 52.926 M272.471 58.021 C 276.957 58.983,275.924 63.699,270.092 68.882 C 266.554 72.026,259.120 77.357,253.402 80.848 C 253.156 80.999,252.274 81.564,251.443 82.104 C 249.864 83.129,241.529 88.079,239.398 89.256 C 238.721 89.631,237.551 90.301,236.799 90.747 C 231.544 93.858,230.245 94.399,228.475 94.213 C 225.827 93.937,225.630 94.165,232.695 89.318 C 234.200 88.286,237.524 85.985,240.082 84.207 C 242.640 82.428,245.932 80.147,247.396 79.138 L 250.059 77.303 250.132 70.321 L 250.205 63.338 251.894 63.340 C 254.151 63.342,253.875 62.712,254.704 69.767 C 255.183 73.843,254.900 73.683,258.753 72.066 C 269.171 67.694,272.343 62.620,266.066 60.372 C 265.318 60.104,264.275 59.690,263.748 59.451 L 262.791 59.017 264.159 58.640 C 267.156 57.813,270.381 57.573,272.471 58.021 M289.581 65.282 C 290.900 65.789,289.277 67.997,285.483 70.856 C 284.589 71.530,282.996 72.767,281.943 73.604 C 279.970 75.172,273.326 80.015,271.388 81.299 C 270.357 81.981,270.091 82.025,266.748 82.063 C 263.506 82.100,262.439 81.883,263.624 81.428 C 263.857 81.339,265.273 80.495,266.772 79.552 C 268.271 78.610,269.795 77.654,270.159 77.428 C 277.663 72.778,283.446 67.391,282.351 66.072 C 282.094 65.761,282.156 65.658,282.671 65.542 C 284.121 65.214,288.933 65.034,289.581 65.282 M306.064 68.078 L 306.221 69.398 302.563 71.013 C 296.416 73.727,295.212 74.574,295.212 76.179 C 295.212 76.942,296.097 77.152,297.063 76.618 C 297.577 76.334,300.982 74.794,301.984 74.392 C 302.322 74.256,302.876 74.033,303.215 73.897 C 308.419 71.799,314.102 70.331,318.605 69.923 C 322.906 69.532,323.786 69.243,321.823 68.864 C 321.407 68.784,320.575 68.582,319.973 68.415 C 316.996 67.590,311.091 66.763,308.152 66.760 L 305.908 66.758 306.064 68.078 M370.567 71.278 C 371.420 72.580,371.990 73.765,372.343 74.966 C 372.541 75.643,372.813 76.554,372.946 76.990 C 374.316 81.489,373.199 85.155,366.057 99.584 C 363.113 105.531,359.244 113.376,357.459 117.018 C 355.675 120.660,354.113 123.577,353.988 123.500 C 353.864 123.423,353.762 121.955,353.762 120.238 C 353.762 116.779,353.592 117.328,356.631 110.944 C 359.012 105.940,362.097 99.418,363.748 95.896 C 364.242 94.843,365.409 92.380,366.342 90.424 C 370.388 81.935,370.727 80.943,370.723 77.596 C 370.721 75.643,370.309 72.893,369.798 71.408 C 369.383 70.205,369.816 70.132,370.567 71.278 M388.782 77.565 C 388.782 77.973,388.900 78.208,389.056 78.112 C 389.207 78.019,389.330 77.773,389.330 77.565 C 389.330 77.357,389.207 77.111,389.056 77.018 C 388.900 76.922,388.782 77.157,388.782 77.565 M318.741 77.975 C 314.839 78.398,310.569 79.070,306.566 79.891 C 302.747 80.675,296.854 82.573,296.854 83.019 C 296.854 83.364,297.642 84.585,298.039 84.855 C 298.182 84.952,299.358 84.659,300.654 84.203 C 301.950 83.746,303.440 83.279,303.967 83.163 C 304.494 83.048,305.602 82.775,306.430 82.557 C 307.257 82.339,308.673 82.010,309.576 81.826 C 310.479 81.642,311.648 81.383,312.175 81.252 C 312.702 81.120,313.687 80.944,314.364 80.862 C 315.041 80.780,317.011 80.534,318.741 80.317 C 323.057 79.774,332.586 79.289,334.692 79.505 C 336.548 79.695,337.346 79.323,337.346 78.268 C 337.346 77.279,326.710 77.112,318.741 77.975 M339.157 83.487 C 338.422 83.777,337.314 84.242,336.694 84.521 C 336.075 84.800,333.906 85.733,331.874 86.594 C 329.843 87.455,327.688 88.377,327.086 88.643 C 326.484 88.908,323.160 90.326,319.699 91.793 C 316.238 93.260,312.791 94.735,312.038 95.072 C 311.286 95.409,310.393 95.771,310.055 95.877 C 309.258 96.126,309.299 97.451,310.135 98.447 C 310.176 98.496,311.852 97.840,313.860 96.990 C 315.867 96.140,318.557 95.011,319.836 94.480 C 321.115 93.949,322.811 93.220,323.605 92.859 C 324.399 92.498,325.104 92.202,325.172 92.202 C 325.239 92.202,326.101 91.833,327.086 91.382 C 328.072 90.930,328.931 90.561,328.996 90.561 C 329.061 90.561,330.381 90.023,331.930 89.365 C 333.479 88.707,336.567 87.398,338.792 86.456 C 342.766 84.774,342.829 84.734,342.350 84.204 C 341.325 83.071,340.616 82.912,339.157 83.487 M262.701 89.098 C 263.618 89.929,263.197 90.540,261.316 91.111 C 260.923 91.231,258.632 92.027,256.224 92.881 C 253.817 93.736,251.170 94.663,250.342 94.942 C 249.514 95.221,247.421 95.974,245.691 96.616 C 242.234 97.898,238.408 98.433,238.732 97.590 C 238.817 97.369,239.463 96.980,240.168 96.726 C 240.873 96.472,241.727 96.150,242.066 96.012 C 243.920 95.252,245.707 94.571,253.215 91.763 C 255.923 90.751,258.878 89.644,259.781 89.304 C 261.794 88.546,262.069 88.527,262.701 89.098 M283.324 91.865 C 283.481 91.975,283.628 92.342,283.649 92.680 C 283.698 93.470,283.637 93.481,277.291 93.834 C 274.432 93.994,270.893 94.194,269.425 94.279 C 266.572 94.446,266.633 94.475,266.754 93.023 C 266.837 92.034,266.592 92.079,272.731 91.910 C 281.854 91.658,283.022 91.653,283.324 91.865 M297.811 113.957 C 299.361 114.150,301.327 114.685,302.657 115.274 C 303.152 115.494,303.772 115.744,304.036 115.831 C 305.246 116.229,304.219 116.482,300.752 116.639 C 289.739 117.136,280.706 124.062,277.135 134.747 C 276.934 135.349,276.671 135.958,276.552 136.101 C 276.432 136.244,276.334 136.639,276.334 136.978 C 276.334 137.317,276.225 137.877,276.091 138.222 C 273.393 145.207,276.069 157.156,281.778 163.611 C 282.244 164.138,282.628 164.692,282.631 164.843 C 282.869 175.731,287.661 189.895,292.983 195.443 C 300.393 203.166,313.867 202.255,329.174 192.997 C 332.892 190.749,340.620 192.423,344.779 196.377 C 350.327 201.652,348.498 212.331,340.770 219.781 C 331.114 229.090,312.137 232.100,301.742 225.970 C 300.996 225.531,300.324 225.171,300.247 225.171 C 298.930 225.171,291.777 218.236,287.267 212.585 C 280.498 204.104,276.166 200.691,267.852 197.286 C 261.109 194.525,255.839 184.906,255.722 175.144 C 255.678 171.537,256.045 170.034,256.462 172.116 C 257.378 176.700,262.721 183.171,269.767 188.232 C 281.922 196.962,288.780 203.098,294.693 210.534 C 300.591 217.951,304.606 220.302,313.202 221.373 C 319.605 222.171,329.796 220.099,334.192 217.106 C 340.688 212.683,343.404 203.427,339.045 200.570 C 336.048 198.606,331.069 199.695,320.109 204.711 C 314.405 207.322,311.636 208.047,307.387 208.044 C 298.322 208.039,287.643 200.309,283.130 190.486 C 282.526 189.173,281.805 187.606,281.527 187.004 C 281.249 186.402,280.077 183.016,278.923 179.480 C 277.768 175.944,276.726 172.804,276.606 172.503 C 276.485 172.202,276.117 171.218,275.787 170.315 C 275.456 169.412,275.087 168.427,274.966 168.126 C 274.845 167.825,274.496 166.902,274.191 166.074 C 273.886 165.246,273.209 163.461,272.687 162.107 C 267.873 149.627,267.700 139.705,272.157 131.737 C 273.469 129.390,273.605 129.182,274.918 127.504 C 279.404 121.769,285.630 116.684,290.702 114.613 C 291.734 114.191,295.172 113.588,295.896 113.701 C 296.197 113.748,297.059 113.863,297.811 113.957 M310.462 120.749 C 314.503 121.195,314.594 121.312,312.557 123.455 C 308.354 127.878,305.773 131.975,302.859 138.851 C 302.731 139.152,302.421 140.014,302.170 140.766 C 301.734 142.074,301.573 142.626,300.958 144.938 C 300.468 146.783,299.590 152.500,299.590 153.848 C 299.590 155.908,299.318 156.212,297.750 155.909 C 282.994 153.057,277.554 146.594,281.782 136.936 C 287.068 124.862,296.989 119.262,310.462 120.749 M295.916 158.257 C 296.576 158.917,296.442 159.209,291.750 167.342 C 289.244 171.685,287.018 175.579,286.804 175.995 C 286.266 177.036,285.910 176.689,285.910 175.125 C 285.910 173.996,286.158 173.399,287.688 170.851 C 288.666 169.223,289.466 167.839,289.466 167.777 C 289.466 167.714,289.695 167.336,289.975 166.937 C 290.255 166.537,291.074 165.103,291.796 163.748 C 292.518 162.394,293.310 160.978,293.555 160.602 C 293.800 160.226,294.181 159.549,294.401 159.097 C 294.753 158.374,295.168 157.883,295.437 157.870 C 295.485 157.868,295.701 158.042,295.916 158.257 M299.544 161.812 C 299.621 162.202,298.134 166.241,296.666 169.631 C 296.158 170.802,295.754 171.779,295.477 172.503 C 295.362 172.804,295.071 173.500,294.830 174.050 C 294.588 174.599,294.391 175.129,294.391 175.227 C 294.391 175.326,294.164 175.923,293.886 176.554 C 293.608 177.185,292.972 178.748,292.474 180.027 C 291.975 181.306,291.486 182.476,291.387 182.627 C 291.288 182.777,291.042 183.423,290.840 184.063 C 290.326 185.693,289.979 185.587,289.268 183.584 C 288.599 181.700,288.598 181.703,291.827 174.863 C 292.636 173.152,293.297 171.714,293.297 171.668 C 293.297 171.623,293.743 170.623,294.287 169.445 C 294.832 168.268,295.640 166.505,296.083 165.527 C 298.515 160.153,298.263 160.563,298.886 160.975 C 299.198 161.182,299.494 161.558,299.544 161.812 M302.910 163.654 C 302.655 164.598,301.679 167.793,299.997 173.187 C 298.988 176.423,298.066 179.439,297.947 179.891 C 297.725 180.736,297.149 182.593,296.294 185.226 C 296.025 186.053,295.410 188.023,294.928 189.603 C 293.760 193.431,293.639 193.513,292.486 191.267 L 291.986 190.293 292.937 187.691 C 293.460 186.260,294.241 184.042,294.673 182.763 C 295.105 181.484,296.215 178.283,297.140 175.650 C 298.065 173.016,299.376 169.262,300.052 167.307 C 301.624 162.767,301.633 162.752,302.398 163.048 C 302.734 163.179,302.965 163.451,302.910 163.654 M306.856 165.376 C 307.257 165.988,307.258 166.263,306.865 168.590 C 306.258 172.186,305.080 179.561,304.776 181.669 C 304.635 182.647,304.390 184.248,304.231 185.226 C 304.073 186.204,303.831 187.743,303.694 188.646 C 303.556 189.549,303.324 191.026,303.178 191.929 C 303.032 192.832,302.783 194.445,302.625 195.514 C 302.380 197.176,302.098 198.369,301.954 198.354 C 299.119 198.056,299.122 198.284,301.775 185.089 C 301.926 184.337,302.296 182.428,302.596 180.848 C 302.896 179.268,303.257 177.421,303.397 176.744 C 303.538 176.067,303.914 174.097,304.234 172.367 C 304.553 170.636,304.924 168.789,305.056 168.263 C 305.189 167.736,305.382 166.720,305.484 166.005 C 305.695 164.541,306.167 164.324,306.856 165.376 M312.075 173.065 C 312.865 173.917,312.866 174.021,312.177 180.963 C 311.877 183.985,311.502 187.811,311.345 189.466 C 310.483 198.525,310.601 198.166,308.349 198.526 L 307.189 198.712 307.352 197.919 C 307.511 197.148,308.051 193.346,308.630 188.919 C 308.787 187.715,308.978 186.361,309.054 185.910 C 309.130 185.458,309.309 184.166,309.452 183.037 C 309.594 181.908,309.835 180.123,309.986 179.070 C 310.138 178.016,310.379 176.197,310.523 175.026 C 310.885 172.088,311.016 171.922,312.075 173.065 M324.606 174.624 C 324.677 174.962,324.793 176.040,324.864 177.018 C 324.935 177.996,325.126 180.089,325.290 181.669 C 325.453 183.249,325.743 186.053,325.934 187.900 L 326.281 191.258 325.589 191.894 C 324.785 192.633,323.625 193.434,323.361 193.434 C 322.339 193.434,321.595 181.165,322.415 177.839 C 323.071 175.178,323.591 174.008,324.118 174.008 C 324.315 174.008,324.535 174.285,324.606 174.624 M196.717 199.425 C 196.717 199.500,197.463 201.761,198.375 204.449 C 199.287 207.137,199.995 209.516,199.948 209.736 C 199.871 210.100,197.257 208.709,191.406 205.189 L 190.335 204.545 190.514 205.487 C 190.613 206.005,190.816 206.984,190.965 207.661 C 192.859 216.246,192.184 229.313,189.331 239.260 C 188.558 241.959,188.618 242.131,189.899 240.890 C 193.622 237.282,196.443 231.434,196.443 227.326 C 196.443 225.795,196.780 225.837,198.373 227.568 C 199.632 228.937,202.701 232.185,210.300 240.189 C 212.234 242.227,213.133 242.541,213.133 241.180 C 213.133 240.401,217.708 231.892,219.829 228.727 C 223.714 222.930,228.816 217.154,231.970 214.983 L 233.160 214.163 237.442 214.362 C 242.920 214.616,243.142 214.724,241.252 216.211 C 235.378 220.836,228.227 229.332,223.114 237.765 C 220.971 241.299,220.925 241.631,222.611 241.411 C 224.437 241.172,224.730 240.976,225.524 239.459 C 232.787 225.568,243.813 214.398,252.873 211.751 C 255.170 211.080,254.343 210.867,250.410 211.116 C 239.491 211.807,225.848 211.149,218.468 209.574 C 208.796 207.510,202.540 204.758,198.153 200.637 C 197.363 199.895,196.717 199.350,196.717 199.425 M133.789 207.815 C 133.789 208.133,134.579 208.753,134.712 208.538 C 134.787 208.417,134.610 208.169,134.319 207.987 C 134.028 207.805,133.789 207.727,133.789 207.815 " stroke="none" fill="#141314" fill-rule="evenodd"></path></g></svg>